<?xml version="1.0" standalone="no"?>
<!DOCTYPE svg PUBLIC "-//W3C//DTD SVG 20010904//EN"
 "http://www.w3.org/TR/2001/REC-SVG-20010904/DTD/svg10.dtd">
<svg version="1.0" xmlns="http://www.w3.org/2000/svg"
 width="640.000000pt" height="640.000000pt" viewBox="0 0 640.000000 640.000000"
 preserveAspectRatio="xMidYMid meet">
<metadata>
Created by potrace 1.14, written by Peter Selinger 2001-2017
</metadata>
<g transform="translate(0.000000,640.000000) scale(0.100000,-0.100000)"
fill="#000000" stroke="none">
<path d="M2678 6322 c-58 -17 -85 -29 -81 -38 3 -7 -7 -15 -26 -19 -42 -9 -50
-26 -9 -19 l33 5 -35 -20 c-56 -32 -133 -46 -169 -32 -27 12 -80 6 -67 -7 4
-3 -26 -15 -66 -27 -40 -11 -93 -34 -118 -51 -25 -18 -72 -39 -105 -49 -33 -9
-73 -23 -90 -31 l-30 -14 35 6 c39 7 39 6 -40 -53 -30 -23 -70 -58 -88 -77
-45 -48 -141 -78 -102 -31 7 8 8 15 3 15 -8 0 -83 -75 -198 -199 -37 -39 -44
-51 -28 -47 44 14 33 -16 -32 -84 -44 -45 -60 -67 -46 -63 21 5 21 5 -3 -48
-36 -83 -42 -99 -52 -143 -4 -16 -19 -40 -33 -53 -22 -21 -23 -23 -4 -14 12 6
24 11 28 11 9 0 -25 -63 -48 -88 -18 -19 -18 -22 -4 -16 22 8 23 -19 1 -40
-14 -15 -14 -16 0 -16 19 0 19 -13 2 -62 -11 -31 -11 -35 1 -31 11 4 13 -4 8
-42 -3 -26 -8 -51 -11 -56 -3 -5 0 -9 6 -9 11 0 8 -92 -4 -121 -4 -10 -2 -20
3 -24 6 -3 8 -11 5 -17 -4 -6 -8 -27 -10 -47 -2 -22 0 -31 5 -23 5 9 8 3 7
-17 -1 -17 -5 -31 -11 -31 -5 0 -2 -5 8 -11 14 -9 17 -23 16 -87 0 -42 2 -89
6 -104 5 -18 3 -28 -4 -28 -7 0 -7 -8 0 -27 7 -19 6 -28 -2 -33 -8 -6 -7 -9 2
-12 11 -4 11 -8 2 -19 -9 -11 -8 -18 3 -33 10 -14 11 -23 3 -33 -6 -7 -7 -13
-2 -13 5 0 9 -21 9 -46 1 -25 5 -49 10 -52 6 -4 11 -18 12 -32 0 -14 4 -35 7
-48 5 -20 3 -22 -22 -16 -27 6 -27 6 -8 -9 11 -9 28 -17 38 -17 33 0 103 -81
125 -144 31 -87 14 -104 -34 -35 -34 50 -141 139 -167 139 -15 0 -16 3 -7 20
6 11 8 25 5 30 -3 6 -1 10 5 10 6 0 8 5 5 10 -4 6 -12 4 -22 -6 -13 -12 -13
-18 -4 -24 10 -5 9 -9 -4 -13 -9 -4 -13 -3 -10 3 3 6 -1 10 -11 10 -13 0 -14
3 -5 14 10 12 9 14 -6 10 -27 -7 -80 -91 -92 -144 -16 -71 -13 -178 9 -268 11
-46 20 -92 20 -103 0 -21 16 -26 22 -7 3 7 13 -21 23 -62 10 -41 27 -94 37
-118 11 -23 16 -46 13 -51 -3 -5 -1 -12 5 -16 5 -3 10 -16 9 -28 0 -21 -1 -21
-11 3 -6 14 -17 38 -25 54 -7 16 -13 36 -13 44 0 9 -3 13 -6 9 -4 -3 2 -38 11
-78 14 -57 15 -76 6 -91 -6 -10 -9 -23 -6 -27 7 -12 -21 -22 -40 -15 -8 4 -15
1 -15 -6 0 -7 -8 -19 -17 -26 -14 -10 -15 -12 -3 -12 51 3 55 -2 20 -23 -30
-19 -51 -27 -107 -45 -9 -2 -10 -10 -4 -27 11 -28 3 -40 -70 -115 -66 -68 -95
-92 -110 -92 -7 0 -9 -3 -6 -7 9 -8 -58 -38 -108 -47 -40 -8 -80 -38 -67 -50
3 -4 -1 -4 -10 -1 -8 3 -18 0 -21 -7 -3 -10 4 -13 32 -10 l36 3 -33 -17 c-18
-9 -30 -19 -27 -22 9 -10 -16 -31 -31 -25 -8 3 -14 1 -14 -4 0 -6 -10 -15 -23
-22 -12 -6 -15 -10 -6 -7 12 3 16 -2 16 -20 0 -17 -5 -24 -18 -24 -11 0 -19
-5 -19 -12 0 -9 -3 -9 -12 0 -7 7 -16 12 -22 12 -5 0 -1 -7 10 -16 16 -13 17
-16 4 -21 -22 -9 -73 -63 -66 -70 3 -4 16 3 29 14 30 28 67 46 67 34 0 -6 -15
-18 -32 -27 -18 -9 -37 -23 -41 -30 -4 -8 -12 -14 -17 -14 -12 0 -98 -58 -106
-72 -4 -6 1 -6 14 1 11 6 38 11 59 11 l38 0 -38 -25 c-20 -14 -41 -23 -46 -20
-5 3 -7 -3 -4 -13 3 -13 -9 -25 -49 -46 -40 -21 -46 -27 -23 -22 29 6 29 6 10
-9 -11 -9 -25 -13 -33 -10 -7 2 -11 1 -8 -4 3 -5 -8 -14 -24 -21 -17 -7 -29
-14 -28 -16 4 -4 66 11 93 22 18 7 19 6 5 -8 -9 -8 -26 -19 -38 -22 -12 -4
-22 -11 -22 -16 0 -4 -10 -6 -21 -3 -18 5 -20 3 -14 -16 4 -14 2 -21 -7 -21
-23 0 -123 -70 -120 -84 1 -7 -4 -26 -12 -41 -8 -16 -13 -32 -10 -37 3 -4 -27
-31 -66 -59 l-70 -51 0 -894 0 -894 978 0 979 0 44 28 c24 16 50 36 57 45 12
14 10 15 -15 12 -15 -1 -27 -8 -26 -13 3 -12 -105 -68 -114 -59 -7 8 20 34 32
31 13 -4 69 73 83 115 11 30 10 37 -4 50 -11 10 -14 11 -9 3 4 -8 1 -25 -6
-39 -10 -19 -18 -23 -37 -18 -19 5 -34 -5 -80 -53 -70 -71 -109 -101 -69 -54
15 19 27 39 27 45 0 8 -3 9 -8 2 -11 -17 -72 -57 -72 -48 0 5 12 17 26 28 14
11 30 29 35 40 5 11 16 30 25 43 9 12 13 22 8 22 -5 0 -22 -18 -37 -40 -16
-22 -38 -45 -50 -51 -18 -9 -20 -9 -10 2 18 18 16 32 -3 25 -14 -6 -15 -4 -4
9 10 11 15 13 20 4 6 -8 9 -8 14 0 4 6 2 11 -3 11 -15 0 -14 27 2 33 6 2 9 8
5 12 -5 5 -17 -2 -28 -15 -23 -26 -41 -20 -19 6 12 15 11 16 -9 10 -29 -10
-28 5 4 39 14 15 23 29 20 32 -4 4 -48 -33 -112 -94 -7 -7 -17 -13 -23 -13 -6
0 -11 -5 -11 -12 0 -6 -2 -9 -5 -7 -7 8 16 82 31 99 7 9 15 31 16 50 2 19 8
39 13 43 6 5 4 7 -5 4 -8 -2 -14 -9 -13 -14 1 -5 -8 -15 -19 -22 -19 -12 -20
-11 -13 6 4 10 10 29 12 43 4 22 2 21 -18 -10 -24 -36 -48 -59 -62 -60 -5 0
-1 7 8 16 17 18 14 59 -7 79 -7 7 -8 3 -3 -12 4 -14 2 -23 -4 -23 -6 0 -11 7
-11 17 0 13 -4 11 -21 -8 -17 -20 -22 -21 -31 -9 -8 13 -9 12 -5 -2 3 -9 -4
-27 -15 -40 -18 -20 -20 -20 -13 -3 4 11 7 27 7 35 0 8 13 31 28 50 21 28 70
115 70 125 0 1 -11 0 -25 -2 -30 -6 -56 -34 -37 -40 13 -5 17 -33 5 -33 -34 1
-39 42 -10 74 9 11 17 31 17 45 0 24 -2 23 -40 -19 -22 -25 -40 -41 -40 -37 0
10 -30 -18 -30 -29 0 -3 7 -1 15 6 9 7 18 10 22 6 3 -3 1 -6 -6 -6 -7 0 -10
-4 -6 -9 11 -18 -12 -20 -28 -3 -11 12 -13 22 -7 32 16 26 11 34 -10 15 -11
-10 -20 -13 -20 -8 0 6 7 16 16 23 8 8 21 27 29 44 7 17 36 56 64 86 55 59 59
68 37 76 -8 3 -13 13 -10 22 3 10 0 9 -6 -3 -13 -24 -102 -71 -93 -49 3 8 9
14 13 14 5 0 14 23 21 50 7 28 16 50 21 50 4 0 8 7 8 15 0 9 -6 12 -15 9 -8
-4 -15 -10 -15 -16 0 -15 -46 -78 -53 -72 -3 4 0 16 8 28 8 11 15 30 14 41 0
15 -5 11 -16 -15 -16 -34 -16 -34 -22 -10 -7 24 -7 23 -31 -15 -13 -22 -30
-46 -36 -52 -18 -18 -37 -16 -30 3 3 9 6 25 6 35 0 11 5 17 10 14 6 -3 10 0
10 8 0 18 -39 15 -50 -4 -7 -10 -12 -11 -21 -2 -8 8 -19 9 -38 2 l-26 -10 30
33 c17 18 33 34 38 36 4 2 7 9 7 15 0 6 7 18 15 28 11 11 14 26 9 43 -6 27
-24 36 -24 13 0 -13 -49 -62 -54 -55 -2 2 2 19 7 38 7 24 12 29 14 17 3 -9 8
-15 13 -12 4 3 3 18 -3 34 -10 28 -8 32 32 71 23 23 40 45 36 48 -3 4 -24 -13
-45 -36 -22 -23 -42 -42 -46 -42 -4 0 1 9 10 19 15 16 15 22 4 40 -7 12 -16
21 -20 21 -5 0 -8 5 -8 11 0 6 8 8 19 4 11 -3 23 0 27 6 5 9 2 10 -9 6 -18 -7
-33 8 -17 18 5 3 10 14 10 23 0 22 -49 -36 -50 -59 0 -9 -8 -23 -18 -32 -16
-14 -19 -14 -41 2 l-24 18 21 24 c12 12 22 27 22 32 0 5 14 26 30 47 27 35 29
40 14 48 -11 6 -15 18 -12 35 5 25 5 25 -21 9 -14 -9 -31 -23 -37 -31 -6 -8
-18 -11 -28 -8 -13 5 -16 16 -13 44 2 21 8 46 12 56 9 22 -3 37 -15 17 -5 -8
-11 -12 -15 -9 -3 3 6 23 20 45 l26 39 -43 -45 c-24 -25 -49 -55 -56 -65 -9
-13 -11 -15 -8 -4 2 9 -4 23 -15 32 -26 23 -24 34 16 96 19 29 35 55 35 58 0
2 -16 -5 -36 -17 l-35 -22 -20 20 c-22 24 -25 36 -6 29 13 -4 36 20 37 39 0
20 -56 78 -64 65 -4 -6 -12 -11 -17 -11 -6 0 -8 4 -4 9 3 5 -4 12 -15 16 -28
9 -25 28 12 64 24 23 28 31 15 31 -9 0 -17 4 -17 9 0 5 -9 11 -20 14 -12 3
-20 0 -20 -8 0 -17 -28 -27 -33 -12 -2 7 5 22 16 34 16 18 24 20 40 11 17 -9
19 -8 14 6 -7 19 6 21 35 5 16 -8 19 -8 13 1 -5 9 -1 10 16 5 21 -7 22 -6 11
7 -16 20 -82 31 -99 16 -9 -7 -13 -7 -13 0 0 6 6 12 13 15 9 3 7 10 -5 23 -12
12 -18 14 -18 5 0 -8 -6 -11 -15 -7 -8 3 -15 0 -16 -7 0 -7 -5 -2 -11 11 -6
12 -17 22 -25 22 -30 0 -10 21 32 32 50 14 54 30 9 39 l-29 6 25 11 25 11 -26
0 c-19 1 -28 -5 -32 -21 -5 -18 -9 -19 -21 -9 -8 7 -20 10 -25 7 -5 -4 -12 -2
-16 4 -3 5 -5 10 -3 10 2 0 27 9 56 19 30 11 54 15 58 10 3 -5 9 -7 14 -4 5 3
32 -4 60 -15 28 -11 58 -20 68 -20 9 0 28 -9 42 -20 27 -21 56 -26 62 -10 2 6
9 1 16 -10 10 -16 10 -20 0 -18 -25 5 -14 -36 11 -42 36 -8 36 -25 1 -40 -21
-9 -28 -16 -21 -23 6 -6 23 -5 48 6 31 12 40 12 50 2 6 -7 9 -16 6 -19 -4 -3
-1 -6 4 -6 6 0 13 5 15 12 3 7 14 9 31 4 15 -3 25 -11 22 -16 -3 -5 -1 -18 5
-29 5 -11 6 -22 2 -25 -5 -3 -15 6 -22 19 -14 26 -36 35 -27 12 3 -7 -1 -21
-8 -30 -13 -19 -9 -57 6 -57 5 0 7 11 3 25 -4 15 -2 25 5 25 6 0 11 -7 11 -15
0 -10 10 -15 30 -15 23 0 30 -4 30 -20 0 -14 -7 -20 -21 -20 -19 0 -19 -1 -3
-17 16 -16 18 -15 40 12 26 33 29 30 14 -10 -8 -22 -7 -27 14 -35 42 -16 41
-65 -2 -89 -9 -5 -13 -13 -9 -17 5 -5 11 -4 15 1 7 10 48 35 57 35 3 0 5 -7 5
-15 0 -8 5 -15 10 -15 6 0 10 -5 10 -11 0 -5 -5 -7 -10 -4 -16 10 -11 -12 7
-31 11 -11 18 -13 21 -5 6 18 22 12 22 -8 0 -24 16 -36 23 -19 3 9 9 7 19 -6
8 -10 20 -16 26 -12 8 5 12 0 12 -13 0 -19 53 -81 70 -81 5 0 10 5 12 12 2 6
12 9 21 5 14 -5 16 -16 12 -59 -6 -52 -6 -52 13 -30 25 28 46 29 39 1 -3 -13
1 -29 11 -40 10 -10 23 -39 30 -64 7 -27 18 -45 26 -45 8 0 18 -5 22 -12 5 -7
3 -8 -6 -3 -10 6 -11 4 -6 -11 5 -10 9 -26 9 -34 1 -24 26 -45 39 -32 8 8 8
15 -1 26 -17 20 -32 76 -20 76 5 0 9 -12 9 -26 0 -18 4 -25 14 -21 10 4 12 0
9 -14 -5 -17 -3 -18 21 -9 17 6 26 6 26 0 0 -6 -4 -10 -10 -10 -18 0 -11 -18
10 -25 11 -3 19 -9 19 -13 -4 -26 3 -42 20 -42 23 0 34 -23 18 -40 -9 -9 -8
-11 5 -8 17 3 64 -44 74 -74 6 -21 25 -23 43 -6 11 11 12 9 6 -10 -5 -17 -1
-28 14 -41 12 -10 21 -23 21 -30 0 -6 4 -11 10 -11 5 0 23 -19 40 -42 30 -41
39 -65 20 -53 -6 3 -7 -1 -4 -9 7 -19 21 -21 27 -3 3 9 7 9 17 0 10 -9 16 -8
28 4 15 14 17 14 26 -7 7 -15 6 -27 -2 -40 -7 -12 -8 -21 -2 -25 6 -4 13 1 16
9 5 13 10 12 35 -6 16 -12 29 -26 29 -31 0 -4 8 -16 17 -25 16 -16 16 -16 11
0 -4 10 -1 19 8 22 10 4 14 -3 14 -28 0 -40 8 -66 21 -66 5 0 9 9 9 20 0 11 6
20 14 20 8 0 16 3 19 8 2 4 2 1 0 -7 -2 -7 15 -31 37 -53 22 -22 40 -44 40
-49 0 -12 -17 -11 -25 1 -11 18 -26 11 -17 -8 5 -9 6 -26 1 -37 -4 -11 -8 -33
-8 -50 0 -29 1 -29 10 -6 9 23 10 24 24 5 8 -10 15 -15 15 -10 0 5 8 -1 19
-12 10 -12 22 -22 26 -22 4 0 -5 14 -19 31 -28 33 -30 43 -15 74 7 15 8 12 3
-13 -6 -34 10 -46 20 -14 3 9 4 4 2 -11 -2 -20 2 -30 13 -34 9 -3 24 -13 34
-21 16 -15 17 -14 11 3 -6 15 -4 17 10 12 14 -6 17 -3 12 9 -4 10 -2 14 6 11
7 -2 13 -13 12 -25 0 -12 7 -23 17 -25 15 -4 16 -1 9 17 -6 18 -4 22 12 23 13
1 18 -3 14 -12 -7 -20 24 -6 46 20 15 17 19 18 28 5 8 -12 12 -12 18 -2 16 25
62 -14 46 -39 -9 -16 14 -10 32 8 15 16 17 16 29 -1 10 -13 14 -14 18 -4 2 7
8 10 12 6 4 -4 2 -14 -5 -23 -8 -10 -9 -15 -1 -15 6 0 11 5 11 10 0 6 7 10 15
10 12 0 14 -7 10 -27 -6 -27 -6 -27 10 -8 9 11 21 19 26 18 5 -2 9 6 9 18 0
19 1 19 16 5 19 -19 36 -20 52 -4 21 21 13 -4 -11 -36 -42 -56 -42 -61 3 -28
43 32 44 32 62 12 10 -11 26 -20 34 -20 10 0 14 -6 10 -15 -6 -17 19 -21 29
-5 4 6 10 8 15 5 5 -3 12 0 16 6 4 8 3 9 -4 5 -7 -4 -12 -2 -12 4 0 7 8 9 23
5 36 -11 38 -19 12 -49 -14 -16 -25 -39 -24 -50 0 -14 2 -16 6 -6 6 15 27 37
57 60 18 14 18 13 11 -9 -6 -20 -4 -23 9 -18 21 8 20 -1 -1 -27 -18 -21 -18
-21 5 -2 12 11 25 16 28 13 4 -4 -4 -15 -17 -26 l-24 -20 27 -1 c14 0 28 5 30
11 3 9 9 9 25 0 16 -8 246 -11 862 -11 787 0 840 1 844 18 4 16 5 16 6 0 1
-22 37 -24 45 -2 10 27 7 46 -8 41 -17 -7 -10 26 12 60 12 19 12 25 -1 43 -13
19 -15 19 -30 3 -8 -10 -15 -20 -14 -23 1 -3 -14 -27 -32 -55 -43 -63 -40 -59
-47 -52 -3 3 4 20 16 36 26 38 18 40 -18 4 l-26 -27 -7 25 c-3 13 -5 48 -5 76
1 29 -3 54 -8 56 -5 2 -2 14 7 27 9 14 17 21 17 16 0 -5 6 -3 14 3 10 8 15 9
18 1 5 -15 38 -1 38 16 0 8 -6 11 -15 8 -11 -5 -13 -2 -8 12 5 13 3 16 -9 12
-12 -5 -14 2 -11 40 2 40 1 43 -8 22 -8 -20 -12 -22 -19 -10 -8 12 -10 12 -15
-1 -3 -9 -5 -20 -4 -25 4 -21 -2 -28 -11 -14 -8 12 -10 11 -10 -6 0 -34 -23
-47 -39 -22 -11 18 -11 23 2 33 11 8 13 15 6 22 -12 12 17 79 38 87 15 6 18
-10 3 -19 -11 -7 -4 -25 9 -25 5 0 14 21 21 48 7 26 18 53 23 60 7 8 6 21 -3
40 -11 22 -14 24 -17 9 -3 -9 -9 -17 -15 -17 -5 0 -7 7 -4 16 25 66 11 89 -18
28 -9 -20 -20 -34 -23 -31 -10 11 27 76 47 82 10 3 22 16 25 28 4 12 21 36 39
52 46 43 88 104 83 118 -4 9 -6 9 -6 0 -1 -18 -21 -16 -21 1 0 8 -5 27 -11 43
-10 27 -11 27 -25 9 -20 -27 -18 -38 6 -31 17 5 20 2 20 -20 0 -18 -6 -29 -20
-32 -11 -3 -20 -11 -20 -17 0 -13 -60 -95 -103 -141 -25 -28 -27 -29 -27 -8 0
12 5 25 10 28 5 3 10 15 10 27 0 16 -3 18 -13 9 -8 -6 -17 -8 -21 -4 -4 4 -4
0 0 -10 4 -12 1 -17 -11 -17 -14 0 -16 7 -13 38 7 61 7 61 67 131 21 24 40 24
25 -1 -8 -13 -14 -51 -6 -44 11 12 72 111 72 119 0 4 6 5 13 1 6 -4 4 2 -6 13
-9 11 -14 22 -11 26 3 3 -5 3 -17 0 -24 -7 -24 -7 -6 21 23 35 14 47 -14 18
-14 -15 -18 -30 -14 -45 4 -15 4 -18 -3 -8 -7 10 -19 0 -52 -43 -47 -61 -65
-71 -56 -28 l6 27 -16 -23 c-9 -12 -22 -22 -30 -22 -7 0 -20 -8 -30 -17 -19
-19 -18 -17 11 40 10 20 22 37 27 37 4 0 8 12 8 26 0 15 16 48 35 74 41 55 42
60 15 60 -11 0 -20 -5 -20 -11 0 -7 -8 -19 -18 -28 -10 -9 -24 -31 -32 -50 -7
-18 -24 -47 -38 -62 -19 -23 -20 -29 -8 -29 16 0 22 -21 10 -33 -14 -13 -34 7
-34 34 0 16 -3 29 -7 29 -5 0 -8 33 -8 73 0 53 6 80 20 104 10 18 22 30 27 27
4 -3 8 -1 8 5 0 5 -6 12 -12 15 -7 3 -4 4 7 1 13 -3 25 2 33 16 11 17 11 25
-3 46 -10 14 -12 23 -7 19 11 -6 47 93 38 102 -8 8 -61 -14 -61 -26 0 -5 -3
-14 -7 -18 -5 -4 -8 2 -8 13 0 25 -48 42 -61 21 -4 -7 -3 -15 2 -19 6 -3 9
-19 7 -35 -4 -28 -4 -28 -16 10 -10 34 -9 44 7 75 51 96 64 145 35 120 -15
-12 -16 -11 -9 11 7 22 6 23 -9 11 -9 -7 -16 -20 -16 -27 0 -8 -4 -14 -10 -14
-5 0 -10 8 -10 18 0 10 -13 -3 -30 -31 -17 -27 -37 -47 -48 -47 -13 0 -14 2
-4 9 16 10 25 141 10 141 -7 0 -8 15 -4 40 6 37 -4 54 -19 30 -11 -18 -24 -10
-20 12 6 28 -3 58 -16 58 -5 0 -9 -7 -9 -15 0 -8 -4 -15 -10 -15 -13 0 -13 3
2 35 6 14 15 25 20 25 4 0 17 9 29 21 20 20 20 21 3 47 -16 25 -18 25 -24 7
-5 -13 -16 -20 -35 -20 -26 -1 -26 0 -9 15 32 26 46 48 54 85 11 47 4 44 -21
-10 -25 -53 -51 -72 -69 -51 -9 12 -7 14 12 9 18 -4 20 -3 8 6 -8 6 -10 11 -5
11 6 0 19 13 29 28 20 27 20 27 0 9 -22 -19 -39 -23 -29 -7 3 5 1 10 -4 10 -6
0 -11 -6 -11 -12 0 -10 -3 -9 -9 1 -5 8 -15 10 -22 6 -8 -4 4 9 26 29 22 19
43 35 48 36 4 0 7 5 7 10 0 16 -19 11 -37 -10 -10 -11 -22 -20 -27 -20 -6 0
-5 5 2 12 17 17 15 33 -3 18 -9 -7 -15 -8 -15 -2 0 6 20 20 45 32 25 12 47 26
51 31 9 15 -19 10 -59 -11 -44 -24 -48 -24 -41 -5 3 8 14 17 25 20 11 4 17 10
15 14 -3 4 -1 13 4 21 6 10 3 21 -8 33 -15 17 -13 20 28 57 43 37 47 56 6 25
-11 -8 -25 -15 -30 -15 -14 1 45 50 59 50 6 0 28 23 48 50 21 28 33 50 28 50
-5 0 -14 -7 -21 -15 -11 -13 -15 -13 -21 -3 -6 9 -9 5 -9 -12 0 -34 -13 -52
-32 -45 -11 4 -18 -1 -23 -14 -3 -12 -12 -21 -20 -21 -8 0 1 22 26 59 44 66
52 91 14 46 -21 -25 -25 -26 -23 -10 2 11 17 32 33 47 31 29 23 39 -11 13 -29
-22 -42 -17 -15 6 16 13 21 23 14 27 -15 10 -7 61 12 82 10 11 14 24 10 30
-13 22 14 38 55 33 36 -5 40 -3 40 16 0 25 -12 27 -30 6 -20 -24 -32 -17 -25
15 5 25 4 29 -9 24 -11 -4 -17 0 -18 12 0 11 -3 30 -4 44 -2 14 -6 51 -10 82
-6 56 -25 90 -38 69 -4 -5 -7 -42 -7 -80 -1 -39 -4 -69 -8 -66 -4 2 -6 -20 -4
-50 1 -30 -1 -55 -5 -55 -4 0 -6 -16 -4 -35 3 -24 -1 -42 -12 -54 -9 -10 -13
-20 -10 -23 3 -4 1 -22 -4 -42 -6 -21 -7 -34 -1 -31 12 8 11 -2 -2 -27 -9 -16
-8 -19 2 -13 9 6 11 3 6 -9 -4 -10 -7 -24 -7 -32 0 -9 -5 -12 -11 -8 -9 5 -10
-2 -6 -22 3 -16 4 -23 1 -16 -11 24 -24 11 -20 -20 4 -35 -10 -62 -27 -51 -6
3 -7 1 -3 -6 4 -6 2 -18 -4 -26 -6 -8 -9 -19 -5 -26 4 -6 2 -15 -5 -19 -7 -4
-13 -23 -15 -41 -1 -21 -8 -35 -17 -37 -10 -2 -14 -11 -11 -27 4 -16 -2 -29
-16 -41 -12 -10 -21 -24 -21 -31 0 -7 -11 -23 -24 -34 -13 -12 -27 -32 -30
-46 -4 -13 -11 -21 -16 -18 -5 3 -13 -3 -19 -12 -9 -16 -10 -16 -11 -1 0 9 -5
20 -11 24 -7 4 -9 0 -5 -13 4 -11 1 -33 -5 -49 -10 -23 -13 -25 -16 -11 -8 30
-29 18 -25 -15 1 -3 -5 -11 -12 -18 -23 -18 -29 6 -11 41 9 17 14 34 11 37 -4
3 -12 -9 -18 -26 -7 -18 -16 -32 -20 -32 -4 0 -8 -12 -8 -26 0 -32 -25 -61
-34 -39 -7 20 -26 19 -26 -1 0 -14 -1 -14 -16 0 -20 20 -23 20 -18 -1 2 -10 0
-24 -5 -32 -8 -12 -12 -12 -25 -2 -15 12 -20 8 -17 -11 0 -5 -11 -8 -25 -8
-24 0 -25 -2 -13 -17 12 -15 12 -16 -1 -8 -29 16 -50 38 -44 46 3 5 -5 5 -18
0 -24 -9 -28 -6 -103 65 -41 39 -78 110 -72 135 3 10 1 19 -3 21 -4 2 -10 26
-13 53 -6 47 -6 48 5 15 11 -34 11 -34 18 -10 7 24 7 24 18 -10 l10 -35 1 35
c2 31 3 33 15 18 17 -23 27 -12 16 17 -5 13 -6 26 -2 30 11 12 -455 -3 -478
-15 -24 -13 -23 -42 4 -83 15 -22 21 -25 33 -16 20 17 25 6 13 -26 -8 -22 -8
-30 2 -37 12 -7 4 -12 -14 -9 -4 0 -5 -12 -2 -27 4 -21 -1 -34 -23 -57 -15
-15 -22 -25 -14 -20 10 6 12 4 5 -6 -16 -27 -67 -79 -77 -79 -6 0 2 13 18 30
16 16 25 33 21 37 -4 5 -16 -2 -26 -14 -17 -22 -47 -33 -36 -14 4 5 -12 0 -35
-11 -23 -11 -58 -22 -78 -25 l-36 -4 23 19 c29 26 30 47 1 32 -11 -7 -27 -9
-34 -6 -7 2 -19 -2 -26 -10 -6 -8 -14 -12 -17 -9 -3 3 5 16 18 30 25 27 21 32
-11 15 -13 -8 -19 -7 -19 0 0 6 -7 4 -16 -4 -18 -18 -54 -39 -54 -32 0 3 15
19 33 35 17 17 27 31 20 31 -6 0 -19 -7 -28 -16 -9 -9 -19 -14 -22 -10 -3 3
-14 -4 -24 -16 -11 -11 -19 -16 -19 -9 0 7 14 26 30 43 17 16 30 31 30 34 0
12 -23 0 -57 -28 l-37 -33 24 35 24 35 -27 -24 -27 -25 12 35 c6 19 14 36 17
39 3 3 15 15 25 28 17 20 18 22 3 16 -10 -3 -34 -31 -53 -60 -20 -30 -38 -54
-40 -54 -5 0 8 33 19 48 5 7 7 16 3 19 -4 4 -10 3 -14 -2 -4 -6 -23 -23 -41
-40 l-34 -30 23 34 c23 34 15 34 -24 2 -17 -14 -19 -14 -14 0 5 12 -1 15 -27
14 -18 0 -41 -7 -51 -15 -16 -13 -17 -13 -11 2 4 13 2 15 -10 11 -13 -5 -13
-3 -4 15 17 33 13 35 -16 7 -16 -14 -29 -21 -31 -15 -5 13 44 71 52 63 3 -4 6
-1 6 6 0 8 -7 10 -20 6 -11 -4 -20 -2 -20 4 0 6 5 11 10 11 21 0 9 20 -12 21
-18 1 -19 2 -5 6 22 6 12 23 -14 23 -24 0 -24 9 -2 26 23 16 11 29 -15 15 -16
-8 -24 -8 -35 3 -12 12 -18 10 -40 -16 -15 -16 -31 -26 -38 -22 -8 5 -7 9 2
15 11 7 11 9 -3 9 -12 0 -15 6 -10 22 3 14 2 19 -6 14 -8 -5 -12 1 -12 17 0
14 -7 27 -15 31 -8 3 -15 11 -15 17 0 8 4 8 15 -1 12 -10 15 -10 15 2 0 8 -12
20 -26 27 -17 7 -24 17 -20 27 3 8 -1 17 -9 20 -8 4 -15 12 -15 20 0 8 -6 11
-16 7 -14 -5 -14 -3 -2 18 7 13 21 30 31 37 20 15 13 36 -10 28 -11 -4 -13 -1
-8 14 6 20 -9 28 -20 10 -9 -15 -25 -12 -25 6 0 8 -5 12 -10 9 -6 -4 -10 -12
-9 -18 3 -22 -1 -40 -7 -34 -3 3 -17 1 -31 -4 -19 -7 -24 -6 -21 3 3 7 11 13
18 13 7 0 15 6 18 14 3 8 0 11 -5 8 -5 -3 -15 -2 -22 3 -10 5 -4 10 18 15 28
6 44 25 21 25 -5 0 -10 7 -10 15 0 8 -6 15 -13 15 -23 0 -28 -12 -10 -25 14
-11 14 -12 -6 -18 -18 -4 -21 -1 -21 24 0 22 5 29 20 29 11 0 20 5 20 11 0 6
-9 9 -20 6 -12 -3 -20 0 -20 8 0 8 7 11 19 8 10 -3 22 0 25 5 5 9 -32 10 -54
2 -3 -2 -9 -2 -14 -1 -5 1 -6 -5 -3 -14 4 -8 2 -15 -3 -15 -14 0 -12 17 6 51
14 28 14 33 -1 56 -10 14 -14 32 -9 41 4 9 6 29 5 44 -1 14 2 29 8 32 6 4 8
27 4 56 -3 30 -1 55 5 63 6 7 11 22 10 32 0 11 5 46 12 77 12 56 8 94 -9 84
-9 -6 -21 37 -24 86 -1 14 -6 26 -11 25 -6 -1 -12 6 -14 17 -3 12 1 17 9 14
21 -7 44 21 30 35 -6 6 -11 25 -11 43 0 23 -5 33 -20 37 -14 3 -20 14 -20 31
0 14 -4 26 -10 26 -5 0 -10 7 -10 15 0 20 -19 19 -27 -1 -5 -13 -7 -13 -14 -2
-5 7 -9 23 -9 35 0 12 -6 24 -12 26 -10 4 -10 6 0 6 10 1 10 6 2 21 -6 11 -8
25 -5 30 3 5 0 12 -6 15 -6 4 -8 18 -5 31 6 24 -8 34 -17 12 -3 -9 -7 -8 -12
4 -4 11 -1 24 9 34 15 15 15 18 1 40 -8 13 -15 32 -15 42 0 10 -5 23 -12 30
-9 9 -8 12 5 12 9 0 17 5 17 10 0 6 -4 10 -10 10 -16 0 -12 22 8 36 14 10 15
16 5 32 -10 17 -9 21 10 27 14 4 17 8 9 12 -9 3 -10 9 -2 18 11 14 58 7 97
-13 12 -7 29 -9 37 -6 11 4 16 1 16 -10 0 -9 11 -21 24 -26 13 -5 27 -13 30
-18 3 -5 22 -13 41 -16 21 -4 41 -17 51 -31 9 -14 25 -25 36 -25 10 0 29 -11
42 -25 13 -14 27 -25 33 -25 5 0 26 -18 46 -39 43 -45 110 -81 153 -81 23 0
26 3 14 10 -11 8 -5 10 25 10 22 0 67 1 100 4 33 2 71 4 83 5 23 1 27 26 4 26
-5 0 -14 3 -18 7 -11 12 -21 10 -38 -8 -15 -14 -16 -14 -16 0 0 23 -56 21 -70
-1 -10 -17 -10 -17 -8 0 2 13 -12 24 -55 41 -32 14 -69 37 -82 52 -32 37 -22
46 11 11 25 -27 44 -35 44 -18 0 5 -7 14 -15 21 -8 7 -15 17 -15 23 0 6 2 8 5
5 3 -3 19 7 35 23 36 37 46 36 54 -2 8 -42 43 -88 75 -100 14 -6 45 -8 68 -4
55 8 97 58 98 116 0 21 4 39 8 39 13 0 70 -31 98 -54 14 -12 36 -28 47 -36 16
-10 18 -16 9 -22 -7 -4 -17 -1 -24 8 -10 14 -16 13 -52 -6 -23 -11 -41 -23
-41 -26 0 -9 123 7 134 16 5 5 17 3 27 -3 27 -17 34 -1 14 30 -17 26 -17 27
-1 14 14 -12 19 -12 26 -1 6 10 14 7 34 -13 28 -28 35 -81 15 -118 -8 -16 -7
-20 3 -18 39 5 76 -4 102 -26 25 -20 28 -26 17 -39 -11 -13 -11 -17 3 -22 9
-3 13 -10 10 -15 -3 -5 -11 -31 -18 -59 -9 -35 -10 -51 -2 -55 8 -3 7 -7 -1
-11 -7 -3 -13 -10 -13 -15 0 -10 -13 -26 -65 -83 -46 -50 -99 -126 -118 -167
-45 -100 -42 -233 5 -216 7 2 26 -2 42 -10 22 -11 26 -17 15 -23 -7 -5 -10
-12 -6 -17 4 -4 17 -2 28 5 16 10 25 10 47 -2 15 -8 39 -20 55 -27 15 -6 27
-14 27 -19 0 -4 44 -6 98 -4 53 1 118 3 144 3 29 0 50 5 55 14 4 8 22 21 39
30 17 9 36 22 43 31 10 12 19 12 44 4 18 -6 37 -15 44 -20 15 -12 48 36 37 53
-4 7 -3 9 4 5 17 -10 24 12 17 55 l-7 39 -46 -38 c-26 -22 -60 -47 -77 -57
-30 -17 -30 -17 4 14 35 32 35 39 0 21 -13 -8 -19 -7 -19 0 0 7 -12 9 -32 5
-28 -5 -38 -1 -68 29 -19 19 -41 36 -47 36 -7 0 -13 3 -13 8 0 4 -10 12 -22
17 -18 8 -25 22 -30 63 -5 30 -15 60 -23 68 -29 29 -11 90 25 90 24 0 25 2 24
57 -1 31 -7 63 -14 72 -7 8 -10 22 -6 30 3 8 0 15 -5 15 -7 0 -9 9 -6 22 3 11
-1 34 -9 49 -7 15 -14 41 -14 58 0 16 -5 33 -11 37 -8 4 -9 25 -5 63 14 115
14 137 -2 191 -9 30 -15 61 -13 68 1 10 -4 9 -22 -3 -16 -10 -27 -12 -31 -6
-4 6 -13 8 -20 5 -8 -3 -38 11 -66 30 -29 20 -71 40 -93 46 -23 5 -58 16 -77
22 -20 7 -89 13 -162 13 -70 0 -130 4 -134 8 -4 4 -20 7 -34 7 -15 0 -44 7
-65 15 -20 9 -44 15 -53 13 -10 -1 -26 3 -37 9 -16 8 -48 4 -150 -23 -149 -38
-163 -40 -146 -20 7 9 8 17 2 20 -5 3 -11 0 -14 -6 -3 -10 -7 -10 -17 -1 -10
10 -11 15 -1 27 7 8 14 32 17 53 2 21 7 46 10 55 6 21 -28 33 -56 18 -28 -15
-37 -6 -32 30 3 20 0 30 -9 30 -10 0 -10 3 -1 12 14 14 16 42 2 33 -21 -13 -9
13 13 28 17 12 19 18 10 27 -6 7 -9 19 -6 26 3 8 -1 14 -11 14 -9 0 -15 -3
-15 -7 6 -40 -2 -53 -34 -53 -21 0 -36 7 -45 20 -11 18 -10 20 8 20 11 0 20 7
20 15 0 8 -5 15 -10 15 -14 0 -7 78 8 107 11 19 9 25 -14 46 l-25 24 25 24
c14 13 26 27 26 32 0 14 -17 7 -43 -17 -30 -27 -47 -18 -20 10 13 13 15 18 5
22 -10 3 -10 7 0 19 10 12 9 18 -6 28 -16 12 -16 15 -1 44 16 33 7 41 -18 16
-13 -12 -15 -11 -13 9 0 14 6 22 14 19 6 -3 12 -1 12 5 0 6 -6 12 -12 15 -10
3 -10 8 1 21 19 23 9 29 -25 16 l-29 -11 23 24 c23 24 22 52 -2 70 -7 6 -5 7
5 4 12 -4 16 1 15 24 -1 16 -5 29 -10 29 -4 0 -5 8 -2 17 4 9 1 20 -6 25 -8 5
-9 8 -2 8 12 0 84 64 84 75 0 3 -9 3 -20 0 -11 -3 -20 -4 -20 -1 0 8 30 44 59
73 27 26 22 44 -6 22 -16 -13 -17 -12 -4 4 7 9 24 17 37 17 13 0 24 5 24 10 0
6 12 10 28 10 21 0 24 2 12 10 -12 8 -11 10 7 10 12 0 34 11 49 25 18 16 39
25 60 25 19 0 34 5 34 10 0 6 10 10 23 10 13 0 28 5 34 11 7 7 20 5 45 -7 33
-15 37 -15 76 5 25 13 43 17 47 11 3 -6 -2 -10 -11 -10 -10 0 -15 -2 -12 -5
10 -10 68 8 68 21 0 13 41 11 80 -4 22 -8 28 -9 50 -11 11 0 20 -6 20 -12 0
-6 -9 -9 -20 -6 -11 3 -20 1 -20 -4 0 -5 8 -9 17 -9 9 0 14 -2 12 -5 -3 -2
-22 -2 -43 2 -26 4 -35 10 -32 20 4 10 -3 12 -32 9 -20 -3 -43 -5 -51 -5 -24
-1 -5 -12 31 -18 38 -5 63 -23 32 -23 -10 0 -34 4 -51 9 -18 5 -35 6 -38 2 -6
-11 67 -29 145 -35 36 -3 73 -8 83 -11 10 -4 17 -2 17 4 0 6 -10 11 -22 11
-23 1 -23 1 2 15 14 8 46 19 72 25 45 11 47 11 80 -20 50 -49 77 -64 117 -65
31 -1 88 -31 121 -65 15 -15 61 -32 67 -25 5 4 2 10 -4 12 -7 3 -13 9 -13 15
0 6 6 6 15 -2 8 -7 31 -14 52 -17 21 -3 42 -11 48 -19 5 -7 21 -16 35 -18 14
-3 25 -5 25 -6 0 -1 16 -4 35 -7 19 -2 38 -10 42 -16 6 -9 11 -8 18 3 9 13 11
13 20 0 8 -13 12 -12 25 8 9 12 24 22 34 22 10 0 26 9 36 20 14 15 21 17 26 8
6 -9 13 -8 28 6 15 13 21 15 21 6 0 -10 4 -10 18 2 26 23 46 33 38 20 -10 -16
7 -15 23 1 11 10 13 10 7 0 -14 -25 18 -12 63 25 25 20 49 36 53 35 3 -2 18
11 32 27 37 44 42 36 10 -17 -22 -38 -23 -45 -8 -33 30 23 43 43 44 65 1 14 3
15 7 6 3 -8 14 13 25 47 15 50 23 63 44 68 31 8 37 3 37 -32 0 -26 2 -25 50
26 47 50 51 52 63 34 8 -10 21 -28 29 -39 42 -55 94 -143 100 -170 12 -57 58
-180 78 -208 11 -16 26 -63 34 -105 8 -43 19 -83 25 -89 6 -7 7 -13 2 -13 -5
0 -4 -4 1 -8 16 -11 67 -93 62 -99 -3 -3 -16 14 -29 36 -13 22 -26 41 -29 41
-4 0 -6 -18 -6 -41 0 -22 3 -35 7 -29 6 9 9 9 15 0 4 -7 2 -15 -4 -19 -16 -10
-20 -76 -19 -301 0 -107 0 -291 -1 -407 -1 -137 2 -213 8 -213 10 0 13 16 25
104 3 22 17 63 31 91 34 70 32 88 -7 106 -33 14 -33 15 -30 74 3 62 26 155 69
285 14 41 25 89 24 107 0 18 5 38 13 45 7 7 11 18 9 25 -2 6 3 45 11 87 9 41
16 102 16 135 0 33 4 62 9 65 10 6 7 108 -4 126 -6 9 -3 9 13 1 20 -11 21 -10
7 21 -13 33 -10 88 6 88 11 0 0 56 -21 105 -26 60 -30 75 -20 75 6 0 10 -9 10
-20 0 -11 5 -20 11 -20 8 0 9 11 4 33 -3 17 -9 46 -11 62 -9 54 -44 176 -59
206 -9 17 -11 29 -5 29 5 0 10 -3 10 -8 0 -4 10 -13 23 -21 l22 -14 -21 24
c-11 13 -38 49 -59 79 -21 30 -58 72 -82 93 -44 40 -58 72 -25 60 32 -11 -75
83 -115 101 -25 11 -43 28 -52 49 -40 93 -52 117 -59 113 -4 -2 -14 9 -21 26
-10 22 -19 28 -32 25 -11 -3 -17 -1 -14 4 3 4 -12 20 -35 34 -22 14 -40 32
-40 40 0 8 -6 12 -13 9 -8 -3 -27 10 -43 29 -42 50 -118 93 -204 115 -87 23
-82 21 -227 79 -169 66 -267 93 -343 93 -43 0 -88 8 -126 21 -46 17 -86 22
-179 24 -79 1 -137 8 -170 18 -63 21 -71 20 -177 -11z m77 -12 c-3 -5 -14 -10
-23 -9 -14 0 -13 2 3 9 27 11 27 11 20 0z m-98 -26 c-3 -3 -12 -4 -19 -1 -8 3
-5 6 6 6 11 1 17 -2 13 -5z m628 -62 c-3 -3 -11 0 -18 7 -9 10 -8 11 6 5 10
-3 15 -9 12 -12z m159 11 c7 -7 29 -13 55 -15 8 -1 16 -9 18 -19 3 -10 18 -24
34 -31 19 -8 24 -15 16 -20 -8 -5 -7 -8 5 -8 9 0 24 -7 32 -16 9 -8 20 -13 24
-10 5 3 21 -4 37 -14 18 -12 38 -17 52 -14 14 4 23 2 23 -6 0 -6 -5 -8 -11 -4
-6 3 -15 1 -19 -6 -6 -9 -13 -9 -28 -1 -26 14 -42 14 -42 1 0 -5 10 -10 23
-10 12 0 28 -4 36 -9 9 -6 24 -5 39 0 18 7 39 4 78 -10 29 -11 56 -16 59 -12
9 15 48 -1 80 -32 23 -22 25 -28 10 -22 -11 4 -33 11 -50 15 -16 4 -63 17
-103 28 -73 21 -88 15 -29 -12 48 -21 98 -36 121 -36 24 0 93 -34 116 -57 13
-13 13 -14 -7 -9 -12 4 -30 9 -40 11 -10 2 -35 10 -55 19 -78 33 -68 10 20
-47 55 -36 54 -42 -3 -15 -25 12 -45 26 -45 30 0 4 -8 8 -17 8 -26 -1 26 -46
122 -105 74 -46 126 -85 113 -85 -19 0 -145 53 -162 68 -25 22 -159 112 -168
112 -3 0 -29 15 -57 34 l-51 34 -107 -2 c-81 -3 -102 -1 -83 7 14 5 32 9 40 8
8 -2 12 0 8 4 -4 4 -42 9 -85 10 -43 1 -87 6 -98 13 -16 8 2 10 77 9 97 -2
121 4 100 25 -8 8 -18 9 -35 1 -14 -7 -45 -8 -83 -3 -32 4 -53 8 -45 9 8 0 12
3 9 6 -2 3 -28 1 -57 -5 -31 -6 -60 -6 -69 -1 -11 6 -2 11 34 15 58 8 91 24
53 25 -13 0 -41 3 -62 7 -30 5 -35 9 -26 20 23 28 73 45 112 39 32 -6 36 -9
26 -22 -10 -11 -10 -14 2 -11 8 2 16 6 19 10 10 13 90 -4 90 -20 0 -12 -10
-14 -56 -8 -36 4 -53 3 -49 -4 7 -11 60 -13 129 -4 38 6 44 9 35 21 -7 7 -20
11 -30 8 -11 -4 -19 -2 -19 4 0 6 -15 17 -32 25 -18 8 -26 15 -18 15 8 1 28
-6 44 -14 29 -15 46 -13 46 7 0 6 -3 8 -6 5 -4 -4 -19 2 -34 13 -16 11 -33 20
-39 20 -6 0 -11 5 -11 10 0 6 -9 10 -19 10 -11 0 -23 5 -26 10 -7 11 28 14 39
3z m122 -38 c16 -12 16 -14 3 -15 -9 0 -22 7 -29 15 -16 19 0 19 26 0z m58
-40 c11 -8 15 -15 9 -15 -19 0 -43 12 -43 21 0 13 12 11 34 -6z m-421 -12 c-7
-2 -21 -2 -30 0 -10 3 -4 5 12 5 17 0 24 -2 18 -5z m683 -59 c18 -14 18 -14
-6 -3 -31 14 -36 19 -24 19 6 0 19 -7 30 -16z m-726 -23 c0 -5 -13 -11 -30
-13 -32 -5 -42 7 -12 15 29 8 42 7 42 -2z m810 -1 c12 -8 12 -10 -5 -9 -11 0
-29 4 -40 9 -18 8 -18 9 5 9 14 0 32 -4 40 -9z m29 -37 c34 -20 39 -30 16 -30
-8 0 -15 4 -15 9 0 4 -6 8 -14 8 -7 0 -19 7 -26 15 -17 20 1 19 39 -2z m56 -3
c3 -5 1 -10 -4 -10 -6 0 -11 5 -11 10 0 6 2 10 4 10 3 0 8 -4 11 -10z m-380
-80 c3 -6 -1 -7 -9 -4 -18 7 -21 14 -7 14 6 0 13 -4 16 -10z m-97 -56 c37 -25
66 -49 65 -52 -3 -15 14 -30 56 -52 63 -32 121 -51 121 -40 0 6 -6 10 -12 10
-18 1 -66 40 -50 40 8 0 27 -9 42 -20 16 -12 54 -32 84 -45 30 -13 83 -51 119
-84 35 -34 70 -61 77 -61 8 0 10 -3 7 -7 -4 -4 5 -19 20 -35 26 -27 25 -41 -1
-15 -39 37 -97 77 -174 120 -169 94 -325 162 -344 151 -10 -7 -88 27 -88 38 0
4 11 3 25 -2 16 -6 25 -6 25 0 0 6 -5 10 -11 10 -6 0 -8 7 -5 16 3 8 2 12 -4
9 -5 -3 -14 3 -20 14 -16 32 -46 44 -70 29 -15 -10 -22 -10 -32 0 -9 9 -6 12
14 12 15 0 29 4 33 9 10 18 57 1 123 -45z m-198 26 c-8 -5 -26 -10 -40 -10
-20 0 -22 2 -10 10 8 5 26 10 40 10 20 0 22 -2 10 -10z m710 -10 c8 -5 12 -11
10 -14 -3 -2 -14 2 -24 10 -22 15 -10 19 14 4z m-609 -18 c-7 -2 -18 1 -23 6
-8 8 -4 9 13 5 13 -4 18 -8 10 -11z m285 -7 c10 -8 14 -15 8 -15 -5 0 -19 7
-30 15 -10 8 -14 15 -8 15 5 0 19 -7 30 -15z m102 -54 c37 -23 58 -41 50 -44
-8 -2 -27 6 -43 19 -17 13 -42 24 -57 24 -15 0 -30 4 -33 10 -4 6 1 7 12 3 16
-6 16 -5 4 10 -21 26 -2 20 67 -22z m-383 9 c8 -13 -5 -13 -25 0 -13 8 -13 10
2 10 9 0 20 -4 23 -10z m250 -40 c4 -6 -12 -1 -34 11 -23 12 -44 25 -47 31 -3
5 12 0 34 -11 22 -11 44 -25 47 -31z m-199 -13 c4 -4 18 -7 30 -7 13 0 29 -8
36 -18 7 -10 27 -24 45 -31 17 -7 39 -21 49 -32 9 -10 21 -16 27 -12 6 3 7 1
3 -6 -8 -12 -14 -10 -59 22 -16 10 -30 17 -33 14 -3 -2 17 -18 43 -35 79 -51
91 -60 114 -94 22 -31 20 -31 -23 9 -41 37 -102 76 -120 78 -3 0 -18 12 -32
28 -14 15 -31 27 -39 27 -14 0 -77 29 -77 35 0 2 20 -2 45 -9 25 -8 45 -11 45
-7 0 4 -19 14 -42 21 -24 7 -47 17 -52 22 -6 4 -18 8 -29 8 -10 0 -16 4 -13 9
6 9 69 -8 82 -22z m189 -85 c-3 -3 -11 0 -18 7 -9 10 -8 11 6 5 10 -3 15 -9
12 -12z m45 8 c8 -5 11 -10 5 -10 -5 0 -17 5 -25 10 -8 5 -10 10 -5 10 6 0 17
-5 25 -10z m-6 -161 c37 -34 65 -64 62 -67 -3 -2 -22 12 -43 32 -21 20 -80 66
-130 102 -51 37 -93 68 -93 70 0 13 150 -88 204 -137z m-419 121 c3 -6 -1 -7
-9 -4 -18 7 -21 14 -7 14 6 0 13 -4 16 -10z m525 -125 c0 -7 7 -18 16 -25 8
-8 20 -23 25 -34 6 -12 -6 -3 -26 18 -19 22 -35 44 -36 50 0 6 -27 34 -59 63
-32 28 -56 54 -53 57 7 7 133 -115 133 -129z m-400 88 c30 -20 49 -29 41 -20
-8 10 -12 20 -9 22 8 8 80 -77 119 -141 59 -96 152 -282 127 -252 -13 15 -47
74 -76 130 -54 106 -96 168 -107 157 -3 -4 7 -22 22 -40 15 -19 -14 5 -64 53
-50 48 -103 90 -117 94 -14 3 -23 10 -20 15 3 5 -2 6 -10 3 -9 -3 -16 -1 -16
5 0 23 57 10 110 -26z m395 19 c-3 -3 -11 0 -18 7 -9 10 -8 11 6 5 10 -3 15
-9 12 -12z m-353 -127 c21 -22 38 -44 38 -49 0 -4 -15 7 -32 27 -18 19 -53 54
-78 77 l-45 43 40 -29 c22 -16 57 -47 77 -69z m98 42 c0 -6 -9 -2 -20 8 -11
10 -20 23 -20 28 0 6 9 2 20 -8 11 -10 20 -23 20 -28z m475 -48 l20 -23 -30
21 c-16 12 -43 36 -60 54 l-30 33 40 -31 c22 -17 49 -41 60 -54z m-1005 46 c7
-9 19 -14 26 -11 8 3 13 0 11 -7 -1 -7 4 -11 11 -9 6 1 12 -5 12 -13 0 -8 4
-15 8 -15 14 0 106 -118 114 -145 5 -21 4 -24 -7 -15 -7 6 -18 24 -25 41 -7
16 -15 27 -18 25 -2 -3 -17 11 -32 32 -15 20 -50 58 -78 85 -28 26 -47 47 -43
47 5 0 14 -7 21 -15z m290 -27 c0 -10 -56 18 -65 32 -4 6 10 3 29 -7 20 -9 36
-20 36 -25z m363 -103 c-6 17 -2 16 26 -7 18 -16 36 -28 40 -28 9 0 84 -101
78 -106 -2 -3 -10 2 -17 11 -7 8 -18 15 -25 15 -7 0 -24 14 -39 32 -14 17 -26
27 -26 21 0 -7 4 -15 10 -18 10 -6 33 -45 27 -45 -7 0 -197 229 -197 237 1 4
30 -23 65 -62 36 -38 62 -61 58 -50z m-374 61 c18 -14 58 -48 87 -76 74 -71
69 -49 -6 25 -77 76 -79 95 -2 24 57 -53 126 -147 151 -204 l13 -30 -22 20
c-11 10 -18 25 -15 32 2 8 0 11 -5 8 -6 -4 -30 13 -53 37 -23 24 -51 50 -62
58 -19 14 -19 14 -5 -5 8 -11 21 -26 28 -33 19 -21 14 -34 -7 -20 -11 7 -19
15 -18 19 3 10 -126 143 -141 146 -21 3 -33 26 -20 35 13 7 28 1 77 -36z m-71
-96 c31 -55 20 -50 -20 8 -18 26 -43 57 -55 70 -13 13 -23 26 -23 29 0 15 76
-69 98 -107z m502 23 c0 -8 -9 0 -50 45 l-45 47 48 -45 c26 -24 47 -45 47 -47z
m-675 -14 l30 -33 -39 33 c-31 26 -41 30 -48 19 -8 -10 -9 -9 -4 4 3 11 -4 24
-19 37 -14 10 -25 22 -25 26 0 10 70 -47 105 -86z m1455 -11 c0 -10 -4 -18 -9
-18 -5 0 -7 8 -4 18 2 10 -3 24 -11 31 -9 8 -16 19 -16 25 1 18 40 -37 40 -56z
m-580 -22 c0 -6 -11 5 -25 24 -14 19 -25 36 -25 39 1 10 50 -53 50 -63z m-594
7 c-7 -7 -26 7 -26 19 0 6 6 6 15 -2 9 -7 13 -15 11 -17z m1254 -83 c3 -3 11
-22 17 -43 11 -38 11 -39 -8 -21 -10 9 -19 27 -19 40 0 12 -5 24 -11 26 -5 2
-12 19 -14 38 l-5 35 18 -35 c9 -19 19 -37 22 -40z m-32 -36 c-3 -14 -7 -10
-16 16 -12 32 -11 34 4 19 9 -9 14 -25 12 -35z m-27 -31 c1 -5 3 -18 4 -29 1
-12 5 -26 8 -31 4 -6 -3 -8 -18 -6 -23 5 -25 10 -16 66 0 4 6 7 11 7 6 0 11
-3 11 -7z m99 -71 c0 -13 -3 -12 -15 4 -19 25 -19 40 0 24 8 -7 15 -20 15 -28z
m-1955 0 c-3 -3 -11 0 -18 7 -9 10 -8 11 6 5 10 -3 15 -9 12 -12z m1934 -82
c0 -9 -6 -4 -14 10 -19 33 -19 49 0 24 8 -10 14 -26 14 -34z m-1786 33 c-7 -2
-19 -2 -25 0 -7 3 -2 5 12 5 14 0 19 -2 13 -5z m1814 -25 c-3 -8 -6 -5 -6 6
-1 11 2 17 5 13 3 -3 4 -12 1 -19z m-1787 -3 c-24 -8 -46 -12 -49 -10 -2 3 2
7 10 9 8 2 21 7 29 9 8 3 24 5 35 6 11 0 0 -7 -25 -14z m1770 -72 c0 -32 -5
-28 -14 10 -4 19 -3 26 4 22 5 -3 10 -18 10 -32z m-10 -68 c0 -5 -5 -3 -10 5
-5 8 -10 20 -10 25 0 6 5 3 10 -5 5 -8 10 -19 10 -25z m0 -147 c0 -6 -7 -5
-15 2 -8 7 -15 17 -15 22 0 6 7 5 15 -2 8 -7 15 -17 15 -22z m2 -38 c4 -8 7
-24 7 -35 1 -19 1 -19 -12 0 -22 32 -28 55 -14 52 7 -1 15 -9 19 -17z m0 -95
c3 3 10 -6 16 -20 14 -31 4 -32 -25 -1 -25 26 -31 45 -10 27 8 -6 16 -9 19 -6z
m4 -115 c14 -75 11 -86 -9 -39 l-15 34 5 -54 c6 -61 -12 -64 -23 -3 -3 20 -17
56 -29 80 -13 23 -20 42 -15 42 5 0 12 -5 16 -11 5 -8 10 -6 16 5 20 35 42 13
54 -54z m24 34 c0 -8 -4 -12 -10 -9 -5 3 -10 10 -10 16 0 5 5 9 10 9 6 0 10
-7 10 -16z m-2497 -519 c7 -16 -8 -29 -23 -20 -15 9 -12 35 4 35 8 0 16 -7 19
-15z m-1005 -217 c-11 -46 -3 -184 11 -202 4 -6 9 -36 9 -66 l1 -55 -19 50
c-10 28 -19 69 -19 93 -1 23 -5 42 -10 42 -12 0 1 150 15 172 14 22 21 3 12
-34z m1606 -188 c44 -11 89 -20 102 -20 44 0 36 -20 -8 -21 -221 -6 -358 6
-358 32 0 5 -8 9 -17 9 -16 1 -16 2 2 16 26 21 168 13 279 -16z m-1294 -42 c0
-11 -4 -17 -8 -14 -5 3 -21 7 -36 10 -33 6 -46 17 -28 23 6 3 12 13 12 24 0
19 1 19 30 -3 17 -12 30 -30 30 -40z m-100 16 c0 -8 -7 -14 -15 -14 -15 0 -21
21 -9 33 10 9 24 -2 24 -19z m1431 -86 c1 -17 2 -19 6 -5 2 9 8 17 13 17 5 0
7 -7 4 -15 -4 -10 -2 -13 8 -10 11 5 14 -1 10 -25 -6 -43 -62 -88 -102 -82
-16 2 -27 8 -24 13 3 5 -1 6 -9 3 -9 -3 -22 4 -30 16 -12 18 -13 28 -4 49 18
43 26 46 38 14 12 -37 32 -47 60 -30 19 12 20 21 4 60 -5 12 -2 17 9 17 10 0
16 -9 17 -22z m556 -300 c-3 -8 -6 -5 -6 6 -1 11 2 17 5 13 3 -3 4 -12 1 -19z
m-20 -50 c-3 -8 -6 -5 -6 6 -1 11 2 17 5 13 3 -3 4 -12 1 -19z m-20 -80 c-3
-7 -5 -2 -5 12 0 14 2 19 5 13 2 -7 2 -19 0 -25z m-1297 -38 c0 -5 -4 -10 -10
-10 -5 0 -10 5 -10 10 0 6 5 10 10 10 6 0 10 -4 10 -10z m1270 0 c0 -5 -5 -10
-11 -10 -5 0 -7 5 -4 10 3 6 8 10 11 10 2 0 4 -4 4 -10z m-1214 -87 c-10 -10
-19 5 -10 18 6 11 8 11 12 0 2 -7 1 -15 -2 -18z m1159 -63 c-8 -26 19 -27 41
-1 15 18 17 17 40 -6 13 -13 24 -30 24 -38 0 -19 2 -19 46 5 40 23 51 21 39
-7 -5 -10 -7 -24 -6 -32 2 -10 -6 -12 -32 -7 -25 5 -38 2 -47 -9 -23 -28 -50
-38 -66 -24 -8 6 -14 8 -14 4 0 -5 -9 0 -20 10 -20 18 -27 75 -14 109 9 23 16
20 9 -4z m1280 -331 c2 -22 0 -27 -6 -18 -10 16 -12 66 -3 56 4 -4 8 -21 9
-38z m-3875 -33 c0 -3 -4 -8 -10 -11 -5 -3 -10 -1 -10 4 0 6 5 11 10 11 6 0
10 -2 10 -4z m3877 -58 c-3 -8 -6 -5 -6 6 -1 11 2 17 5 13 3 -3 4 -12 1 -19z
m-2443 -114 c20 -19 20 -22 2 -40 -8 -8 -17 -10 -20 -5 -4 5 -1 11 5 13 5 2 7
11 4 21 -4 9 -11 14 -16 11 -5 -3 -7 -10 -4 -15 3 -5 -1 -6 -10 -3 -12 5 -13
9 -4 20 15 18 24 18 43 -2z m-54 -58 c0 -2 -8 -10 -17 -17 -16 -13 -17 -12 -4
4 13 16 21 21 21 13z m20 -22 c-12 -13 -11 -17 1 -25 9 -5 10 -9 2 -9 -6 0
-15 4 -18 10 -7 11 14 55 22 46 3 -3 0 -13 -7 -22z m2440 -83 c0 -6 -4 -13
-10 -16 -5 -3 -10 1 -10 9 0 9 5 16 10 16 6 0 10 -4 10 -9z m-2240 -75 c0 -3
-4 -8 -10 -11 -5 -3 -10 -1 -10 4 0 6 5 11 10 11 6 0 10 -2 10 -4z m2170 -20
c0 -3 -4 -8 -10 -11 -5 -3 -10 -1 -10 4 0 6 5 11 10 11 6 0 10 -2 10 -4z m36
-101 c-21 -16 -32 -13 -21 4 3 6 14 11 23 11 15 -1 15 -2 -2 -15z m-3556 -65
c0 -5 -2 -10 -4 -10 -3 0 -8 5 -11 10 -3 6 -1 10 4 10 6 0 11 -4 11 -10z
m2697 -142 c-3 -7 -5 -2 -5 12 0 14 2 19 5 13 2 -7 2 -19 0 -25z m-1113 -10
c-10 -34 -41 -51 -41 -23 0 8 4 12 9 9 5 -4 12 3 15 15 3 12 10 21 15 21 5 0
6 -10 2 -22z m997 -5 c-12 -20 -14 -14 -5 12 4 9 9 14 11 11 3 -2 0 -13 -6
-23z m-168 -3 c-6 -24 -23 -37 -23 -18 0 12 18 38 26 38 1 0 0 -9 -3 -20z
m-889 -22 c-3 -4 -11 -5 -19 -1 -21 7 -19 12 4 10 11 0 18 -5 15 -9z m913 -38
c-6 -16 -17 -30 -24 -30 -9 0 -6 10 9 30 12 17 23 30 24 30 1 0 -3 -13 -9 -30z
m1216 -22 c-13 -12 -26 -18 -30 -14 -4 4 1 14 11 22 31 22 43 17 19 -8z
m-1933 -53 c-7 -9 -15 -13 -18 -10 -3 2 1 11 8 20 7 9 15 13 18 10 3 -2 -1
-11 -8 -20z m673 10 c-3 -9 -8 -14 -10 -11 -3 3 -2 9 2 15 9 16 15 13 8 -4z
m312 -5 c8 -13 -5 -61 -16 -54 -12 7 -12 64 0 64 6 0 12 -4 16 -10z m38 -42
c3 -27 1 -46 -3 -43 -5 3 -11 -12 -15 -33 -3 -20 -11 -44 -16 -52 -8 -12 -9
-9 -5 10 4 14 11 58 18 97 6 40 13 72 14 70 1 -1 4 -23 7 -49z m-2871 -10 c-7
-7 -12 -8 -12 -2 0 14 12 26 19 19 2 -3 -1 -11 -7 -17z m2942 -33 c3 -46 24
-74 45 -61 21 13 30 -86 10 -114 -7 -11 -9 0 -7 42 2 38 0 54 -7 48 -7 -6 -16
-1 -23 11 -7 11 -23 19 -40 19 -23 1 -24 2 -9 11 12 7 17 23 17 56 0 59 10 50
14 -12z m-38 19 c-4 -9 -9 -15 -11 -12 -3 3 -3 13 1 22 4 9 9 15 11 12 3 -3 3
-13 -1 -22z m-761 -3 c-3 -6 -11 -11 -17 -11 -6 0 -6 6 2 15 14 17 26 13 15
-4z m626 -41 c4 0 6 -7 3 -15 -5 -11 -2 -13 10 -9 10 4 16 18 17 38 0 17 3 25
6 18 2 -6 8 -10 12 -7 4 2 4 -17 1 -43 -4 -26 -5 -54 -3 -62 4 -13 4 -13 -7 0
-9 12 -11 8 -6 -20 4 -29 -1 -23 -30 35 -19 38 -34 81 -33 95 l1 25 10 -27 c5
-16 14 -28 19 -28z m9 24 c0 -8 -4 -12 -10 -9 -5 3 -10 13 -10 21 0 8 5 12 10
9 6 -3 10 -13 10 -21z m-176 -9 c-4 -8 -11 -12 -16 -9 -6 4 -5 10 3 15 19 12
19 11 13 -6z m101 -4 c-3 -6 -11 -11 -17 -11 -6 0 -6 6 2 15 14 17 26 13 15
-4z m191 -23 c-6 -18 -15 -39 -19 -45 -5 -7 -6 -17 -3 -22 3 -5 -1 -15 -10
-22 -13 -11 -14 -9 -8 17 3 16 11 33 15 39 5 5 9 19 9 31 0 12 6 25 13 27 6 3
13 6 13 6 1 1 -3 -14 -10 -31z m-2801 2 c-3 -5 -12 -10 -18 -10 -7 0 -6 4 3
10 19 12 23 12 15 0z m3695 6 c0 -3 -4 -8 -10 -11 -5 -3 -10 -1 -10 4 0 6 5
11 10 11 6 0 10 -2 10 -4z m-1119 -33 c-12 -20 -14 -14 -5 12 4 9 9 14 11 11
3 -2 0 -13 -6 -23z m252 -23 c-3 -12 1 -22 10 -26 12 -4 14 -15 10 -42 -10
-62 -25 -73 -20 -14 2 28 0 52 -4 52 -5 0 -9 8 -9 18 -1 13 -29 -50 -30 -66 0
-2 -5 0 -10 3 -7 4 -9 -3 -5 -22 5 -26 5 -26 -5 -5 -8 19 -6 30 10 52 11 15
20 33 20 39 0 8 24 28 37 31 0 0 -1 -9 -4 -20z m-293 -21 c-7 -11 -14 -18 -17
-15 -3 3 0 12 7 21 18 21 23 19 10 -6z m20 -38 c-4 -21 -17 -51 -28 -66 -26
-33 -29 -25 -5 12 10 14 19 35 20 47 4 26 11 46 16 46 3 0 1 -18 -3 -39z m71
7 c-3 -21 -6 -26 -9 -15 -3 17 3 47 11 47 2 0 1 -15 -2 -32z m306 0 c-3 -7 -5
-2 -5 12 0 14 2 19 5 13 2 -7 2 -19 0 -25z m-2917 -9 c0 -6 -4 -7 -10 -4 -5 3
-10 11 -10 16 0 6 5 7 10 4 6 -3 10 -11 10 -16z m2475 -9 c-3 -5 -11 -10 -16
-10 -6 0 -7 5 -4 10 3 6 11 10 16 10 6 0 7 -4 4 -10z m162 -32 c-3 -7 -5 -2
-5 12 0 14 2 19 5 13 2 -7 2 -19 0 -25z m343 -4 c0 -14 -4 -23 -10 -19 -5 3
-10 15 -10 26 0 10 5 19 10 19 6 0 10 -12 10 -26z m-550 6 c0 -5 -5 -10 -11
-10 -5 0 -7 5 -4 10 3 6 8 10 11 10 2 0 4 -4 4 -10z m-30 -23 c0 -2 -10 -12
-22 -23 l-23 -19 19 23 c18 21 26 27 26 19z m-1739 -50 c-8 -8 -11 -7 -11 4 0
9 3 19 7 23 4 4 9 2 11 -4 3 -7 -1 -17 -7 -23z m2331 -2 c2 -19 0 -35 -4 -35
-4 0 -8 16 -8 35 0 19 2 35 4 35 2 0 6 -16 8 -35z m-462 1 c0 -2 -7 -6 -15
-10 -8 -3 -15 -1 -15 4 0 6 7 10 15 10 8 0 15 -2 15 -4z m280 -31 c0 -19 -4
-35 -10 -35 -11 0 -14 53 -3 63 11 12 13 8 13 -28z m-510 -9 c0 -2 -8 -10 -17
-17 -16 -13 -17 -12 -4 4 13 16 21 21 21 13z m614 -41 c-4 -8 -8 -15 -10 -15
-2 0 -4 7 -4 15 0 8 4 15 10 15 5 0 7 -7 4 -15z m930 -41 c-9 -22 -17 -48 -18
-59 -1 -11 -3 -30 -4 -42 -1 -13 -8 -23 -15 -23 -8 0 -19 -10 -26 -22 -9 -18
-10 -18 -5 -3 3 11 9 40 12 65 5 43 19 75 50 113 23 26 25 14 6 -29z m-3636
12 c-7 -8 -15 -12 -17 -11 -5 6 10 25 20 25 5 0 4 -6 -3 -14z m-98 -20 c0 -11
-19 -15 -25 -6 -3 5 1 10 9 10 9 0 16 -2 16 -4z m3641 -13 c0 -16 1 -16 8 1
11 28 23 4 15 -29 -6 -25 -34 -36 -34 -12 0 6 -3 22 -6 35 -4 13 -2 22 5 22 6
0 11 -8 12 -17z m-724 -25 c-3 -7 -5 -2 -5 12 0 14 2 19 5 13 2 -7 2 -19 0
-25z m870 0 c-3 -8 -6 -5 -6 6 -1 11 2 17 5 13 3 -3 4 -12 1 -19z m-730 -95
c-14 -14 -19 -15 -29 -4 -9 9 -9 12 -1 7 6 -3 14 -2 18 4 3 5 11 10 18 10 6 0
4 -7 -6 -17z m-47 -18 c-1 -6 -16 -18 -33 -28 l-32 -19 23 20 c12 11 22 25 22
32 0 6 5 10 11 8 6 -2 10 -8 9 -13z m-2185 -5 c3 -5 -1 -10 -10 -10 -9 0 -13
5 -10 10 3 6 8 10 10 10 2 0 7 -4 10 -10z m-758 -22 c-3 -8 -6 -5 -6 6 -1 11
2 17 5 13 3 -3 4 -12 1 -19z m3927 -126 c2 -4 1 -14 -3 -21 -6 -9 -10 -7 -14
8 -5 20 7 29 17 13z m-1024 -6 c0 -2 -8 -10 -17 -17 -16 -13 -17 -12 -4 4 13
16 21 21 21 13z m716 -38 c-9 -12 -16 -19 -16 -15 0 11 24 47 28 42 2 -2 -3
-14 -12 -27z m-3516 -32 c0 -2 -7 -7 -16 -10 -8 -3 -12 -2 -9 4 6 10 25 14 25
6z m3720 -10 c0 -2 -8 -10 -17 -17 -16 -13 -17 -12 -4 4 13 16 21 21 21 13z
m-2830 -42 c0 -31 -23 -28 -28 4 -2 15 2 22 12 22 11 0 16 -9 16 -26z m-840
-23 c0 -15 -38 -20 -44 -5 -4 10 2 14 19 14 14 0 25 -4 25 -9z m880 -32 c10
-18 9 -20 -7 -17 -10 2 -19 11 -21 21 -5 24 15 21 28 -4z m-768 -31 c-7 -7
-12 -8 -12 -2 0 14 12 26 19 19 2 -3 -1 -11 -7 -17z m-82 -8 c0 -5 -2 -10 -4
-10 -3 0 -8 5 -11 10 -3 6 -1 10 4 10 6 0 11 -4 11 -10z m3500 -6 c0 -8 -4
-12 -10 -9 -5 3 -10 10 -10 16 0 5 5 9 10 9 6 0 10 -7 10 -16z m-2559 -47
c-17 -17 -24 -1 -9 22 11 18 14 19 16 5 2 -9 -1 -21 -7 -27z m2649 14 c0 -6
-4 -13 -10 -16 -5 -3 -10 1 -10 9 0 9 5 16 10 16 6 0 10 -4 10 -9z m-3520 -75
c0 -2 -8 -10 -17 -17 -16 -13 -17 -12 -4 4 13 16 21 21 21 13z m-60 -20 c0 -2
-7 -9 -15 -16 -12 -10 -15 -10 -15 4 0 9 7 16 15 16 8 0 15 -2 15 -4z m3640
-105 c0 -13 -28 -22 -35 -11 -3 4 1 11 7 13 20 8 28 8 28 -2z m-3430 -31 c0
-5 -5 -10 -11 -10 -5 0 -7 5 -4 10 3 6 8 10 11 10 2 0 4 -4 4 -10z m3400 -4
c0 -3 -4 -8 -10 -11 -5 -3 -10 -1 -10 4 0 6 5 11 10 11 6 0 10 -2 10 -4z
m-2280 -116 c0 -5 -5 -10 -11 -10 -5 0 -7 5 -4 10 3 6 8 10 11 10 2 0 4 -4 4
-10z m2310 -109 c0 -14 -37 -24 -52 -15 -9 6 -5 10 12 15 36 10 40 10 40 0z
m-1745 -11 c20 -8 20 -8 1 -16 -13 -5 -21 -3 -24 4 -2 7 -9 9 -14 6 -7 -4 -8
-2 -4 4 8 14 13 14 41 2z m-1205 -36 c0 -9 -7 -22 -15 -30 -8 -8 -21 -25 -29
-36 -9 -12 -23 -22 -33 -23 -10 0 -24 -5 -32 -9 -9 -6 -12 -5 -9 5 3 8 15 13
27 12 23 -3 29 12 9 21 -7 3 -4 4 7 1 13 -3 25 2 32 15 11 17 10 18 -5 13 -15
-6 -16 -5 -2 12 29 37 35 43 43 38 4 -2 7 -11 7 -19z m3141 3 c-10 -9 -11 -8
-5 6 3 10 9 15 12 12 3 -3 0 -11 -7 -18z m-161 -45 c0 -15 -2 -15 -10 -2 -13
20 -13 33 0 25 6 -3 10 -14 10 -23z m111 -45 c-10 -9 -11 -8 -5 6 3 10 9 15
12 12 3 -3 0 -11 -7 -18z"/>
<path d="M3615 6089 c-4 -6 -5 -13 -2 -16 7 -7 27 6 27 18 0 12 -17 12 -25 -2z"/>
<path d="M3420 6070 c-20 -6 -15 -8 25 -9 28 0 57 4 65 9 19 12 -52 12 -90 0z"/>
<path d="M3568 6073 c7 -3 16 -2 19 1 4 3 -2 6 -13 5 -11 0 -14 -3 -6 -6z"/>
<path d="M3558 6033 c7 -3 16 -2 19 1 4 3 -2 6 -13 5 -11 0 -14 -3 -6 -6z"/>
<path d="M2846 3494 c-4 -9 -4 -19 -2 -21 8 -8 26 8 26 23 0 19 -16 18 -24 -2z"/>
<path d="M3760 4869 c0 -5 5 -7 10 -4 6 3 10 8 10 11 0 2 -4 4 -10 4 -5 0 -10
-5 -10 -11z"/>
<path d="M2200 4170 c0 -5 5 -10 11 -10 5 0 7 5 4 10 -3 6 -8 10 -11 10 -2 0
-4 -4 -4 -10z"/>
<path d="M4358 3791 c23 -19 31 -41 9 -23 -20 17 -95 26 -109 14 -7 -5 -43
-13 -80 -17 -38 -4 -68 -11 -68 -15 0 -7 -7 -8 -108 -9 -58 -1 -137 -35 -178
-76 -28 -28 -76 -53 -92 -47 -7 2 -20 18 -29 35 -21 41 -29 20 -10 -25 13 -31
13 -39 -3 -82 -18 -47 -18 -48 6 -114 l24 -67 -7 58 c-6 55 -5 57 18 58 13 1
36 2 51 3 14 1 33 8 41 15 13 10 15 9 10 -7 -2 -11 -16 -25 -29 -33 -29 -15
-27 -34 4 -32 94 4 89 3 62 14 -34 14 -34 13 1 48 17 18 32 31 33 29 2 -2 8
-18 16 -36 31 -79 112 -105 181 -58 35 24 69 78 69 110 0 20 1 20 45 -1 19 -9
35 -23 35 -30 0 -7 3 -12 8 -12 21 4 22 -3 3 -27 -12 -15 -21 -32 -21 -38 0
-7 -21 -23 -47 -36 -59 -29 -187 -37 -249 -15 -52 19 -84 19 -84 0 0 -21 35
-37 65 -29 17 4 25 2 25 -7 0 -12 2 -12 9 0 6 9 16 11 32 5 32 -10 89 -13 94
-4 6 10 36 6 61 -8 19 -10 21 -9 17 16 l-5 27 22 -25 22 -25 -6 30 c-6 27 -5
28 7 13 20 -25 41 -24 27 1 -16 30 -12 36 10 16 19 -17 21 -17 45 9 14 15 32
40 40 55 8 16 21 31 30 35 11 4 14 13 9 31 -5 19 -2 25 10 25 18 0 20 8 7 29
-11 18 -90 40 -151 42 -46 1 -117 16 -89 18 8 0 44 13 80 27 35 14 79 30 97
34 41 10 88 -5 103 -31 10 -20 49 -26 49 -8 0 6 7 9 15 5 20 -7 39 29 26 52
-11 20 -75 78 -102 93 -14 7 -19 6 -19 -3 0 -9 -3 -9 -12 0 -7 7 -19 12 -27
12 -10 0 -8 -6 7 -19z m-325 -291 c13 0 27 7 31 15 3 8 10 15 15 15 6 0 8 -7
5 -15 -7 -17 11 -21 21 -5 10 16 35 12 35 -6 0 -29 -65 -84 -99 -84 -18 0 -31
5 -31 13 0 8 -3 8 -9 -2 -7 -11 -14 -9 -35 12 -14 14 -26 33 -26 42 0 14 2 14
14 2 17 -17 96 -22 96 -6 0 7 -10 9 -24 7 -15 -3 -27 2 -35 14 -15 25 -13 37
3 16 7 -10 25 -18 39 -18z m242 -70 c-3 -5 -11 -10 -16 -10 -6 0 -7 5 -4 10 3
6 11 10 16 10 6 0 7 -4 4 -10z"/>
<path d="M4097 3478 c-15 -26 -15 -29 -2 -18 20 16 39 50 28 50 -4 0 -16 -14
-26 -32z"/>
<path d="M2388 3783 c7 -3 16 -2 19 1 4 3 -2 6 -13 5 -11 0 -14 -3 -6 -6z"/>
<path d="M1200 3449 c0 -21 23 -104 31 -113 13 -15 11 9 -7 70 -14 51 -24 68
-24 43z"/>
<path d="M2918 3383 c-10 -2 -18 -11 -18 -19 0 -17 47 -9 68 13 11 11 10 13
-10 12 -13 -1 -31 -3 -40 -6z"/>
<path d="M2867 3360 c-3 -13 0 -20 9 -20 15 0 19 26 5 34 -5 3 -11 -3 -14 -14z"/>
<path d="M4590 2591 c0 -11 26 -22 34 -14 12 12 5 23 -14 23 -11 0 -20 -4 -20
-9z"/>
<path d="M3330 2460 c-8 -5 -11 -12 -7 -16 4 -4 15 0 24 9 18 18 8 23 -17 7z"/>
<path d="M4659 2439 c-4 -27 -1 -35 8 -32 9 3 11 0 8 -10 -7 -16 21 -32 30
-17 4 6 13 10 22 10 14 0 14 -2 -1 -19 -17 -19 -17 -20 9 -37 19 -12 23 -19
13 -25 -7 -4 -9 -12 -4 -16 4 -4 14 1 22 11 7 11 17 17 21 13 3 -4 -1 -15 -10
-25 -21 -23 -21 -36 -2 -52 12 -10 19 -10 27 -2 15 15 28 15 28 2 0 -5 -7 -10
-16 -10 -9 0 -14 -5 -12 -12 6 -16 20 -19 37 -9 23 15 -2 64 -28 56 -11 -3
-22 -1 -26 5 -3 5 1 10 10 10 12 0 15 5 11 16 -3 8 -2 23 3 33 8 14 5 16 -22
14 -18 -2 -39 1 -47 7 -13 9 -12 13 7 29 l23 19 -29 10 c-22 8 -31 7 -35 -1
-2 -7 -5 -4 -5 6 -1 9 -6 17 -11 17 -6 0 -14 10 -19 22 -7 20 -9 19 -12 -13z"/>
<path d="M465 2359 c-34 -21 -29 -25 10 -7 14 6 25 15 25 20 0 10 1 10 -35
-13z"/>
<path d="M3134 2318 l-19 -23 23 19 c12 11 22 21 22 23 0 8 -8 2 -26 -19z"/>
<path d="M3080 2319 c0 -5 5 -7 10 -4 6 3 10 8 10 11 0 2 -4 4 -10 4 -5 0 -10
-5 -10 -11z"/>
<path d="M3704 2295 c-17 -13 -53 -31 -81 -40 l-51 -17 -81 37 c-45 20 -85 34
-89 31 -21 -13 -263 -78 -299 -80 -23 -2 -49 -9 -58 -16 -8 -7 -15 -9 -15 -4
0 4 -5 3 -12 -4 -7 -7 -22 -12 -33 -12 -12 0 -32 -11 -45 -25 l-23 -25 25 0
c36 0 90 -20 111 -41 21 -23 77 -52 77 -42 0 5 5 1 10 -7 5 -8 15 -16 22 -16
27 -3 58 -17 58 -25 0 -15 48 -10 64 7 18 18 20 30 6 39 -5 3 -10 19 -10 36 0
16 -4 29 -10 29 -5 0 -10 5 -10 10 0 12 37 13 44 2 3 -5 57 -12 119 -15 102
-6 125 -4 215 18 111 28 143 30 159 14 7 -7 27 -7 69 2 54 11 62 10 102 -10
43 -22 43 -22 32 -2 -9 18 -8 21 12 21 13 0 34 -7 46 -16 35 -24 37 -10 3 19
-16 13 -28 27 -25 30 9 8 -38 21 -68 18 -14 -1 -29 2 -32 8 -4 6 -13 8 -21 5
-8 -3 -42 13 -75 35 -88 60 -101 64 -136 36z m-510 -151 c17 -7 22 -34 6 -34
-5 0 -10 5 -10 10 0 6 -7 10 -15 10 -8 0 -15 5 -15 10 0 11 11 13 34 4z m52
-101 c8 -3 14 -9 14 -14 0 -5 -9 -4 -20 3 -12 8 -19 23 -19 38 2 24 2 24 6 2
3 -13 11 -26 19 -29z"/>
<path d="M3067 2281 c-4 -17 -3 -21 5 -13 5 5 8 16 6 23 -3 8 -7 3 -11 -10z"/>
<path d="M4030 2281 c0 -6 4 -13 10 -16 6 -3 7 1 4 9 -7 18 -14 21 -14 7z"/>
<path d="M4440 2285 c0 -5 5 -17 10 -25 5 -8 10 -10 10 -5 0 6 -5 17 -10 25
-5 8 -10 11 -10 5z"/>
<path d="M4000 2251 c0 -9 33 -41 43 -41 4 0 2 9 -5 20 -13 21 -38 35 -38 21z"/>
<path d="M2907 2230 c-9 -11 -14 -27 -11 -35 4 -9 -1 -24 -10 -34 -16 -18 -13
-51 5 -51 4 0 6 6 3 14 -3 8 0 25 7 38 7 13 12 26 11 31 -1 4 5 7 13 7 8 0 19
9 25 19 17 32 11 38 -11 11 -20 -24 -21 -24 -16 -2 6 27 6 27 -16 2z"/>
<path d="M4871 2204 c11 -13 11 -15 -2 -14 -25 4 -39 0 -39 -10 0 -5 11 -10
24 -10 14 0 28 -4 31 -10 10 -16 28 -12 21 5 -3 9 0 15 10 15 9 0 14 -7 12
-17 -4 -21 27 -29 47 -13 19 16 8 33 -16 27 -11 -3 -19 -1 -19 4 0 5 -16 16
-36 24 -46 19 -50 19 -33 -1z"/>
<path d="M2841 2166 c-8 -10 -9 -16 -1 -21 13 -8 30 3 30 21 0 18 -14 18 -29
0z"/>
<path d="M4925 2116 c-19 -15 -19 -15 8 -16 24 0 27 -3 22 -20 -4 -11 -2 -20
4 -20 6 0 11 -5 11 -11 0 -5 -5 -7 -12 -3 -8 5 -9 2 -4 -11 5 -14 0 -25 -16
-38 -22 -17 -22 -18 -1 -8 12 6 30 8 40 5 15 -5 16 -4 3 6 -13 10 -12 11 3 6
10 -3 22 -6 25 -6 4 0 0 -4 -8 -10 -8 -5 -11 -12 -7 -17 4 -4 17 -2 27 5 11 7
22 12 25 12 10 0 -9 -36 -34 -63 l-26 -29 24 4 c15 2 30 16 41 36 11 20 20 28
23 20 2 -7 0 -21 -5 -32 -7 -13 -6 -21 2 -26 9 -5 9 -9 1 -14 -6 -4 -11 -12
-11 -17 0 -5 19 0 43 11 l42 21 -33 -28 c-33 -28 -35 -47 -4 -36 10 3 6 -5
-10 -21 -33 -32 -35 -40 -8 -31 11 4 20 2 20 -4 0 -6 8 -7 18 -4 15 6 15 5 4
-10 -8 -9 -11 -21 -7 -28 4 -6 10 -7 14 -3 3 5 15 16 26 24 18 14 19 14 7 -2
-18 -23 -12 -63 10 -63 25 0 31 -11 18 -35 -11 -20 -10 -21 9 -11 28 15 36 14
21 -4 -17 -20 -5 -31 16 -15 13 12 17 11 24 0 5 -8 6 -18 4 -22 -3 -4 -1 -8 5
-8 6 0 7 -8 4 -17 -5 -13 -2 -15 11 -10 19 7 15 -4 -12 -35 -17 -21 -13 -22
22 -8 19 7 25 6 23 -3 -1 -6 8 -13 21 -15 19 -3 21 -6 11 -18 -10 -12 -8 -18
10 -30 12 -9 19 -20 16 -25 -4 -5 2 -9 11 -9 16 0 16 -1 1 -18 -25 -28 -20
-35 11 -15 l27 17 -24 -27 c-14 -15 -21 -27 -17 -27 4 0 2 -9 -4 -20 -13 -25
-7 -25 28 -2 l27 17 -16 -25 c-15 -23 -15 -25 12 -47 15 -13 31 -23 35 -23 17
-1 54 -38 54 -54 0 -10 6 -13 18 -9 16 6 16 5 -1 -15 -19 -20 -18 -21 4 -15
19 5 21 3 15 -12 -4 -11 -2 -22 6 -26 9 -6 8 -12 -5 -27 -19 -21 -24 -43 -5
-24 16 16 25 15 32 -4 3 -9 -1 -25 -9 -37 -24 -34 -18 -40 19 -17 20 12 37 17
40 11 4 -5 1 -13 -6 -18 -7 -4 -23 -20 -36 -34 l-23 -26 26 2 26 3 -20 -34
c-30 -50 -27 -64 11 -64 l31 0 -23 -25 c-14 -15 -36 -25 -54 -26 -20 -1 -12
-4 22 -9 29 -4 56 -10 59 -13 3 -3 -4 -16 -16 -28 -29 -31 -27 -37 17 -45 20
-4 43 -11 50 -17 14 -11 16 -31 2 -22 -9 6 -14 -11 -12 -44 0 -8 -3 -24 -8
-36 -7 -18 -4 -25 15 -35 15 -8 27 -28 35 -58 10 -41 9 -48 -9 -73 -26 -35
-26 -38 -1 -32 24 6 25 -5 5 -43 -9 -17 -11 -30 -5 -32 6 -2 10 -10 10 -18 0
-9 5 -12 13 -8 6 4 4 -2 -5 -13 -19 -21 -25 -48 -8 -38 6 4 10 -5 10 -19 0
-14 4 -26 9 -26 13 0 1 -41 -22 -74 -14 -20 -16 -27 -6 -24 8 2 19 15 26 28
21 42 28 -4 8 -55 -17 -45 -29 -56 -38 -32 -2 6 -8 8 -13 4 -5 -4 -2 -12 5
-16 7 -5 11 -13 8 -18 -3 -5 3 -9 13 -10 11 -1 17 3 14 11 -3 7 5 25 17 40 20
25 22 26 34 9 7 -10 10 -20 7 -23 -4 -3 -13 -13 -21 -22 -13 -17 1 -18 257
-18 l271 0 -49 103 c-108 226 -253 594 -254 644 0 17 -4 30 -8 27 -4 -3 -5 1
-3 8 3 7 -5 36 -18 63 -14 28 -39 91 -56 142 -36 103 -70 172 -102 206 -27 28
-64 102 -74 145 -3 17 -11 32 -15 32 -5 0 -7 -7 -4 -15 10 -24 -14 -17 -27 8
-71 132 -386 458 -592 612 -15 11 -25 25 -23 32 3 7 -13 20 -38 32 -54 23 -63
37 -40 62 16 18 16 19 -7 19 -13 0 -33 3 -44 6 -11 3 -29 -2 -40 -10z m465
-636 c0 -5 -2 -10 -4 -10 -3 0 -8 5 -11 10 -3 6 -1 10 4 10 6 0 11 -4 11 -10z
m230 -384 c0 -3 -4 -8 -10 -11 -5 -3 -10 -1 -10 4 0 6 5 11 10 11 6 0 10 -2
10 -4z m40 -356 c0 -5 -5 -10 -11 -10 -5 0 -7 5 -4 10 3 6 8 10 11 10 2 0 4
-4 4 -10z m80 -90 c0 -5 -7 -10 -16 -10 -8 0 -12 5 -9 10 3 6 10 10 16 10 5 0
9 -4 9 -10z m25 -130 c3 -5 1 -10 -4 -10 -6 0 -11 5 -11 10 0 6 2 10 4 10 3 0
8 -4 11 -10z"/>
<path d="M4916 2074 c-9 -9 -14 -19 -11 -22 3 -3 13 2 22 11 9 9 14 19 11 22
-3 3 -13 -2 -22 -11z"/>
<path d="M4535 2041 c-3 -5 -1 -12 4 -15 5 -3 11 1 15 9 6 16 -9 21 -19 6z"/>
<path d="M3285 2000 c-10 -16 -4 -19 46 -24 24 -2 35 -1 25 1 -11 3 -30 11
-42 19 -16 11 -24 12 -29 4z"/>
<path d="M2585 1800 c3 -5 8 -10 11 -10 2 0 4 5 4 10 0 6 -5 10 -11 10 -5 0
-7 -4 -4 -10z"/>
<path d="M865 1740 c3 -5 10 -10 16 -10 5 0 9 5 9 10 0 6 -7 10 -16 10 -8 0
-12 -4 -9 -10z"/>
<path d="M949 1660 l-53 -50 21 -21 c17 -17 24 -19 42 -10 11 6 24 23 27 36 7
27 24 34 24 10 0 -8 5 -15 10 -15 15 0 12 26 -4 39 -11 9 -18 6 -34 -14 -19
-24 -42 -34 -42 -17 1 16 28 42 45 42 9 0 19 9 22 19 3 11 12 22 22 24 11 3
10 5 -6 6 -13 1 -42 -18 -74 -49z"/>
<path d="M3256 1691 c-4 -7 -5 -15 -2 -18 9 -9 19 4 14 18 -4 11 -6 11 -12 0z"/>
<path d="M1020 1683 c0 -5 5 -15 10 -23 8 -12 10 -11 10 8 0 12 -4 22 -10 22
-5 0 -10 -3 -10 -7z"/>
<path d="M1052 1655 c-15 -32 -15 -35 -1 -35 14 0 49 43 42 52 -9 16 -30 7
-41 -17z"/>
<path d="M4612 1655 c-14 -30 -15 -45 -4 -45 7 0 32 47 32 62 0 17 -17 7 -28
-17z"/>
<path d="M3104 1610 c-24 -9 -41 -30 -26 -30 6 0 20 9 33 20 26 21 25 23 -7
10z"/>
<path d="M4867 1613 c-4 -3 -7 -11 -7 -17 0 -6 5 -5 12 2 6 6 9 14 7 17 -3 3
-9 2 -12 -2z"/>
<path d="M955 1560 c-3 -5 -2 -10 4 -10 5 0 13 5 16 10 3 6 2 10 -4 10 -5 0
-13 -4 -16 -10z"/>
<path d="M4636 1473 c-6 -14 -5 -15 5 -6 7 7 10 15 7 18 -3 3 -9 -2 -12 -12z"/>
<path d="M1089 1433 c-13 -16 -12 -17 4 -4 9 7 17 15 17 17 0 8 -8 3 -21 -13z"/>
<path d="M1088 1292 c-23 -25 -43 -62 -33 -62 8 0 55 51 55 60 0 4 5 10 12 12
8 3 8 7 2 11 -6 3 -22 -6 -36 -21z"/>
<path d="M1166 1305 c-11 -8 -15 -15 -9 -15 6 0 16 7 23 15 16 19 11 19 -14 0z"/>
<path d="M5435 1260 c-3 -5 -1 -10 4 -10 6 0 11 5 11 10 0 6 -2 10 -4 10 -3 0
-8 -4 -11 -10z"/>
<path d="M1248 1193 c7 -3 16 -2 19 1 4 3 -2 6 -13 5 -11 0 -14 -3 -6 -6z"/>
<path d="M4965 1150 c-10 -11 -15 -20 -11 -20 11 0 39 30 34 36 -3 2 -13 -5
-23 -16z"/>
<path d="M5507 1153 c-4 -3 -7 -11 -7 -17 0 -6 5 -5 12 2 6 6 9 14 7 17 -3 3
-9 2 -12 -2z"/>
<path d="M4863 1119 c-20 -26 -34 -59 -25 -59 13 0 44 49 40 62 -2 6 -8 5 -15
-3z"/>
<path d="M5085 1067 c-26 -43 -28 -47 -18 -47 8 1 46 70 41 76 -2 1 -12 -12
-23 -29z"/>
<path d="M4756 1044 c-13 -19 -15 -31 -7 -52 l9 -27 1 28 c1 15 6 27 12 27 8
0 10 -14 6 -39 -6 -51 3 -60 20 -21 11 27 10 35 -3 56 -9 13 -14 31 -10 39 9
24 -10 17 -28 -11z"/>
<path d="M4800 1038 c0 -9 5 -20 10 -23 13 -8 13 5 0 25 -8 13 -10 13 -10 -2z"/>
<path d="M4901 984 c-8 -18 -8 -30 -1 -39 13 -16 0 -28 -17 -14 -9 9 -13 8
-13 0 0 -6 5 -11 10 -11 18 0 11 -20 -7 -21 -12 0 -13 -2 -5 -6 21 -8 53 27
46 50 -5 15 -3 19 9 14 11 -4 13 0 9 15 -3 11 1 24 9 29 11 7 9 9 -7 9 -13 0
-25 -10 -33 -26z"/>
<path d="M5545 940 c-3 -5 -2 -10 4 -10 5 0 13 5 16 10 3 6 2 10 -4 10 -5 0
-13 -4 -16 -10z"/>
<path d="M1855 860 c3 -5 8 -10 11 -10 2 0 4 5 4 10 0 6 -5 10 -11 10 -5 0 -7
-4 -4 -10z"/>
<path d="M1296 841 c-4 -7 -5 -15 -2 -18 9 -9 19 4 14 18 -4 11 -6 11 -12 0z"/>
<path d="M5169 833 c-23 -26 -41 -63 -31 -63 12 0 54 59 50 71 -2 6 -11 2 -19
-8z"/>
<path d="M5170 755 c-7 -9 -8 -15 -2 -15 5 0 12 7 16 15 3 8 4 15 2 15 -2 0
-9 -7 -16 -15z"/>
<path d="M6020 752 c0 -4 9 -25 20 -47 23 -45 27 -31 6 20 -14 33 -26 45 -26
27z"/>
<path d="M1520 739 c0 -5 5 -7 10 -4 6 3 10 8 10 11 0 2 -4 4 -10 4 -5 0 -10
-5 -10 -11z"/>
<path d="M5229 719 c-20 -20 -20 -37 0 -24 13 7 34 45 26 45 -3 0 -14 -9 -26
-21z"/>
<path d="M5135 700 c-3 -5 -1 -10 4 -10 6 0 11 5 11 10 0 6 -2 10 -4 10 -3 0
-8 -4 -11 -10z"/>
<path d="M1572 664 c-13 -20 -22 -40 -19 -47 2 -6 13 6 26 26 30 48 23 67 -7
21z"/>
<path d="M5180 655 c-7 -8 -18 -15 -25 -15 -18 0 -55 -83 -55 -121 0 -27 2
-30 15 -19 28 23 75 109 64 116 -6 4 -7 9 -3 13 5 3 15 14 23 24 16 21 -1 23
-19 2z"/>
<path d="M5316 644 c-5 -14 -4 -15 9 -4 17 14 19 20 6 20 -5 0 -12 -7 -15 -16z"/>
<path d="M2080 636 c0 -2 7 -7 16 -10 8 -3 12 -2 9 4 -6 10 -25 14 -25 6z"/>
<path d="M5060 624 c0 -8 5 -12 10 -9 6 4 8 11 5 16 -9 14 -15 11 -15 -7z"/>
<path d="M1631 590 c0 -29 1 -32 10 -17 7 11 7 23 0 35 -9 14 -10 11 -10 -18z"/>
<path d="M1700 570 c0 -5 5 -10 10 -10 6 0 10 5 10 10 0 6 -4 10 -10 10 -5 0
-10 -4 -10 -10z"/>
<path d="M5340 545 c-7 -9 -11 -17 -8 -20 2 -2 12 4 21 15 9 11 13 20 8 20 -5
0 -14 -7 -21 -15z"/>
<path d="M5386 527 c3 -10 9 -15 12 -12 3 3 0 11 -7 18 -10 9 -11 8 -5 -6z"/>
<path d="M1630 514 c0 -8 5 -12 10 -9 6 4 8 11 5 16 -9 14 -15 11 -15 -7z"/>
<path d="M5185 520 c-3 -5 -1 -10 4 -10 6 0 11 5 11 10 0 6 -2 10 -4 10 -3 0
-8 -4 -11 -10z"/>
<path d="M5195 480 c-3 -5 -1 -10 4 -10 6 0 11 5 11 10 0 6 -2 10 -4 10 -3 0
-8 -4 -11 -10z"/>
<path d="M1745 459 c-10 -15 3 -25 16 -12 7 7 7 13 1 17 -6 3 -14 1 -17 -5z"/>
<path d="M5147 453 c-4 -3 -7 -13 -7 -22 1 -13 3 -13 11 2 11 19 8 33 -4 20z"/>
<path d="M5200 449 c0 -5 5 -7 10 -4 6 3 10 8 10 11 0 2 -4 4 -10 4 -5 0 -10
-5 -10 -11z"/>
<path d="M5166 414 c-9 -23 -7 -62 3 -68 5 -3 11 14 13 39 3 45 -4 59 -16 29z"/>
<path d="M1736 395 c-3 -8 -2 -23 1 -32 5 -13 3 -15 -12 -9 -18 7 -18 6 0 -14
10 -11 19 -20 19 -20 1 0 1 15 1 33 0 17 4 38 9 45 5 7 5 12 -2 12 -5 0 -12
-7 -16 -15z"/>
<path d="M2408 403 c6 -2 12 -13 12 -24 0 -10 5 -19 10 -19 16 0 11 37 -6 44
-9 3 -19 6 -22 5 -4 0 -1 -3 6 -6z"/>
<path d="M5050 381 c0 -8 -7 -11 -15 -7 -11 4 -15 -1 -15 -17 l0 -21 22 22
c12 12 19 25 15 28 -4 4 -7 2 -7 -5z"/>
<path d="M1590 358 c-12 -22 -12 -22 6 -6 10 10 15 20 12 24 -4 3 -12 -5 -18
-18z"/>
<path d="M5330 359 c-6 -11 -10 -27 -8 -35 2 -8 8 1 14 20 12 40 10 46 -6 15z"/>
<path d="M2000 345 c0 -11 5 -27 10 -35 8 -12 10 -12 10 5 0 11 -5 27 -10 35
-8 12 -10 12 -10 -5z"/>
<path d="M5350 321 c0 -5 -3 -18 -6 -28 -6 -16 -5 -16 9 2 19 23 21 35 7 35
-5 0 -10 -4 -10 -9z"/>
<path d="M5225 300 c-3 -5 -1 -10 4 -10 6 0 11 5 11 10 0 6 -2 10 -4 10 -3 0
-8 -4 -11 -10z"/>
<path d="M5305 289 c-4 -6 -5 -12 -2 -15 2 -3 7 2 10 11 7 17 1 20 -8 4z"/>
<path d="M5471 246 c-13 -20 -21 -40 -17 -43 3 -3 9 3 13 13 4 10 13 24 21 30
8 6 13 17 10 24 -2 8 -13 -1 -27 -24z"/>
<path d="M2210 238 c0 -7 5 -20 10 -28 8 -13 11 -13 27 2 9 10 13 21 9 25 -5
5 -11 2 -13 -4 -3 -7 -9 -13 -14 -13 -6 0 -8 4 -4 9 3 5 1 12 -5 16 -5 3 -10
0 -10 -7z"/>
<path d="M4986 224 c-9 -24 -7 -28 9 -14 17 14 20 30 6 30 -5 0 -12 -7 -15
-16z"/>
<path d="M5371 219 c-7 -12 -10 -23 -8 -26 3 -3 11 5 17 17 15 28 8 35 -9 9z"/>
<path d="M2490 213 c0 -12 28 -38 34 -32 2 2 -5 13 -15 23 -11 11 -19 15 -19
9z"/>
<path d="M5182 200 c-8 -13 -8 -20 -2 -20 6 0 13 7 17 15 9 24 -1 27 -15 5z"/>
<path d="M2100 200 c0 -5 5 -10 11 -10 5 0 7 5 4 10 -3 6 -8 10 -11 10 -2 0
-4 -4 -4 -10z"/>
<path d="M2150 195 c-7 -9 -11 -18 -8 -20 3 -3 11 1 18 10 7 9 11 18 8 20 -3
3 -11 -1 -18 -10z"/>
<path d="M5120 204 c0 -5 7 -18 15 -28 12 -16 15 -17 15 -4 0 8 -7 21 -15 28
-8 7 -15 9 -15 4z"/>
<path d="M2084 182 c3 -32 23 -49 38 -34 6 6 8 15 3 19 -4 5 -10 2 -13 -6 -3
-9 -9 -4 -18 15 -10 24 -12 25 -10 6z"/>
<path d="M2060 154 c0 -11 7 -29 15 -40 14 -18 15 -17 9 11 -8 37 -24 57 -24
29z"/>
<path d="M4980 134 c0 -8 5 -12 10 -9 6 3 10 10 10 16 0 5 -4 9 -10 9 -5 0
-10 -7 -10 -16z"/>
<path d="M2040 110 c0 -11 5 -20 10 -20 6 0 10 9 10 20 0 11 -4 20 -10 20 -5
0 -10 -9 -10 -20z"/>
<path d="M2140 70 c-12 -16 -17 -30 -11 -30 12 0 51 40 51 52 0 17 -20 7 -40
-22z"/>
<path d="M3187 93 c-12 -11 -8 -23 9 -23 8 0 13 4 10 9 -4 5 0 12 6 14 9 4 8
6 -3 6 -9 1 -19 -2 -22 -6z"/>
<path d="M2535 60 c-3 -5 -1 -10 4 -10 6 0 11 5 11 10 0 6 -2 10 -4 10 -3 0
-8 -4 -11 -10z"/>
<path d="M2739 33 c-13 -16 -12 -17 4 -4 16 13 21 21 13 21 -2 0 -10 -8 -17
-17z"/>
<path d="M5353 33 c-3 -10 -8 -21 -10 -25 -2 -5 0 -8 5 -8 5 0 14 11 20 25 7
16 8 25 1 25 -5 0 -12 -8 -16 -17z"/>
<path d="M5415 10 c-3 -5 -1 -10 4 -10 6 0 11 5 11 10 0 6 -2 10 -4 10 -3 0
-8 -4 -11 -10z"/>
</g>
</svg>
