<?xml version="1.0" standalone="no"?>
<!DOCTYPE svg PUBLIC "-//W3C//DTD SVG 20010904//EN"
 "http://www.w3.org/TR/2001/REC-SVG-20010904/DTD/svg10.dtd">
<svg version="1.0" xmlns="http://www.w3.org/2000/svg"
 width="801.000000pt" height="801.000000pt" viewBox="0 0 801.000000 801.000000"
 preserveAspectRatio="xMidYMid meet">
<metadata>
Created by potrace 1.11, written by Peter Selinger 2001-2013
</metadata>
<g transform="translate(0.000000,801.000000) scale(0.100000,-0.100000)"
fill="#000000" stroke="none">
<path d="M3360 7445 c-9 -11 -35 -15 -99 -15 -60 -1 -92 -5 -105 -15 -12 -9
-42 -15 -77 -15 -38 0 -61 -5 -69 -15 -7 -8 -27 -15 -44 -15 -17 0 -40 -7 -50
-15 -11 -8 -34 -15 -52 -15 -17 0 -37 -7 -44 -15 -7 -8 -26 -15 -42 -15 -16 0
-36 -7 -44 -15 -9 -8 -29 -15 -45 -15 -17 0 -37 -7 -45 -15 -9 -8 -28 -15 -43
-15 -16 0 -34 -7 -41 -15 -7 -8 -25 -15 -40 -15 -16 0 -30 -5 -32 -10 -2 -6
-21 -13 -43 -17 -22 -3 -44 -12 -48 -20 -4 -7 -17 -13 -28 -13 -68 0 -399
-290 -414 -363 -4 -18 -11 -37 -16 -42 -4 -6 -12 -29 -18 -50 -6 -22 -17 -66
-25 -98 -22 -88 -30 -94 -142 -99 -55 -2 -98 -9 -102 -15 -4 -6 -20 -15 -35
-18 -15 -4 -27 -11 -27 -15 0 -4 -14 -13 -30 -19 -35 -12 -140 -113 -140 -134
0 -8 -9 -22 -20 -32 -11 -10 -20 -23 -20 -29 0 -9 -41 -102 -70 -157 -5 -9
-12 -33 -15 -53 -4 -20 -11 -39 -16 -41 -4 -3 -11 -27 -15 -53 -4 -26 -13 -64
-20 -86 -8 -21 -14 -77 -14 -125 0 -49 -6 -103 -15 -126 -18 -51 -18 -179 0
-230 8 -22 15 -56 15 -77 0 -39 16 -93 75 -253 35 -95 53 -170 76 -314 6 -36
15 -73 20 -82 5 -10 9 -48 9 -86 0 -37 5 -86 11 -108 6 -22 14 -114 19 -205 6
-137 11 -172 28 -205 11 -22 23 -57 27 -77 6 -31 3 -41 -17 -61 l-24 -24 32
-29 c21 -19 35 -42 39 -66 4 -21 11 -38 15 -38 5 0 12 -10 16 -22 3 -13 13
-31 21 -40 12 -14 14 -39 8 -148 l-8 -131 -48 81 c-67 111 -94 143 -169 203
-76 61 -131 76 -162 45 -16 -16 -18 -35 -17 -165 1 -125 3 -138 10 -85 13 105
13 104 62 79 22 -12 50 -30 60 -40 10 -10 33 -25 50 -32 18 -7 42 -24 53 -37
49 -53 98 -190 109 -305 11 -104 27 -182 41 -194 9 -7 14 -32 14 -68 0 -35 6
-65 15 -77 8 -10 15 -40 15 -66 0 -25 7 -82 15 -125 21 -111 20 -163 -4 -163
-10 0 -24 6 -30 14 -17 20 -51 27 -51 11 0 -25 12 -45 26 -45 8 0 17 -7 20
-15 4 -8 11 -15 18 -15 6 0 19 -8 28 -18 9 -9 23 -22 30 -28 7 -5 21 -46 31
-90 48 -209 65 -249 204 -512 18 -35 33 -70 33 -78 0 -7 24 -42 53 -76 28 -35
70 -86 92 -113 21 -28 48 -59 60 -70 11 -11 38 -42 59 -70 77 -97 182 -198
281 -268 55 -39 116 -84 135 -101 30 -25 159 -91 315 -161 22 -10 72 -39 110
-65 176 -118 288 -165 450 -190 114 -18 329 -24 367 -11 17 6 77 14 132 17 56
3 133 15 171 26 39 11 94 27 123 34 73 19 116 43 197 109 63 52 269 165 300
165 27 0 308 183 375 245 21 18 120 85 225 150 36 22 204 252 256 351 58 110
104 216 126 289 32 112 63 237 63 258 0 12 10 55 23 96 22 72 24 76 70 98 26
13 47 28 47 33 0 6 5 10 10 10 13 0 50 37 50 50 0 6 7 10 15 10 9 0 15 9 15
25 0 25 -1 25 -25 9 -14 -9 -25 -20 -25 -25 0 -9 -53 -39 -70 -39 -13 0 -14
234 0 260 6 10 14 60 20 111 5 51 14 97 20 103 5 5 10 31 10 57 0 26 4 50 9
53 11 7 26 71 41 171 8 58 23 102 52 160 43 85 110 159 128 141 6 -6 17 -3 32
11 28 27 73 44 92 37 8 -3 16 -20 18 -37 2 -17 9 -32 16 -35 19 -6 17 174 -3
182 -8 3 -15 16 -15 29 0 13 -7 32 -15 43 -8 10 -15 33 -16 49 -1 29 -2 28
-13 -10 -7 -23 -20 -41 -30 -43 -23 -5 -104 -61 -147 -103 -42 -41 -87 -98
-122 -159 l-26 -44 -10 27 c-6 15 -13 56 -17 91 -5 51 -3 69 10 87 9 13 16 31
16 41 0 10 4 18 10 18 5 0 13 12 16 28 4 15 13 36 20 47 8 11 14 27 14 36 0
10 12 27 27 39 27 21 27 22 10 52 -24 42 -21 96 13 233 23 92 30 143 30 220 1
55 7 127 15 160 8 33 15 105 15 160 0 112 18 183 74 300 39 81 76 186 76 216
0 11 7 43 17 71 14 43 15 81 10 263 l-6 213 75 71 c41 39 74 74 74 78 0 3 6
14 14 22 24 27 73 125 81 161 4 19 11 40 15 45 4 6 10 35 13 65 4 31 13 60 22
66 21 16 21 129 0 138 -8 3 -15 15 -15 26 0 11 -4 20 -10 20 -5 0 -10 -9 -10
-19 0 -11 -6 -26 -12 -33 -7 -7 -28 -42 -46 -78 -42 -86 -88 -110 -205 -110
-74 0 -95 5 -157 42 -8 4 -27 13 -42 19 -14 6 -29 17 -32 25 -3 8 -12 14 -21
14 -8 0 -15 4 -15 9 0 5 -23 31 -50 58 -28 26 -74 80 -102 118 -28 39 -62 79
-76 89 -13 11 -37 39 -53 64 -46 72 -246 273 -287 287 -9 3 -42 28 -72 56 -30
28 -69 57 -87 64 -18 7 -38 23 -45 34 -7 12 -17 21 -22 21 -8 0 -127 69 -136
79 -9 11 -71 41 -83 41 -7 0 -24 6 -39 14 -15 8 -40 17 -57 21 -17 4 -31 10
-31 15 0 5 -13 11 -30 15 -16 4 -30 10 -30 15 0 4 -12 10 -27 13 -16 2 -41 9
-58 15 -16 6 -50 15 -75 22 -25 6 -63 15 -85 21 -22 6 -44 14 -50 20 -5 5 -32
9 -60 9 -27 0 -63 7 -79 15 -17 9 -56 15 -100 15 -48 0 -79 5 -92 15 -29 22
-846 22 -864 0z m1610 -1892 c25 -12 68 -31 95 -43 28 -11 64 -28 80 -37 17
-8 91 -47 165 -85 74 -38 157 -87 184 -109 27 -21 53 -39 57 -39 5 0 11 -11
15 -25 3 -14 12 -25 20 -25 9 0 14 -11 14 -30 0 -18 6 -33 15 -36 10 -4 15
-20 15 -45 0 -26 5 -42 15 -45 10 -4 15 -20 15 -45 0 -26 5 -42 15 -45 12 -5
14 -24 11 -108 -3 -55 0 -118 5 -139 7 -26 7 -43 0 -51 -5 -6 -13 -72 -16
-146 -5 -100 -13 -155 -30 -210 -28 -89 -42 -296 -25 -375 6 -27 12 -88 13
-135 2 -47 6 -91 10 -97 10 -16 -20 -199 -39 -241 -21 -46 -16 -138 9 -181
l20 -34 -23 -17 c-19 -15 -21 -22 -15 -61 9 -60 27 -119 35 -119 12 0 23 -165
23 -325 0 -206 -23 -304 -99 -432 -68 -113 -248 -300 -307 -319 -12 -4 -39
-17 -59 -30 -47 -30 -191 -90 -238 -99 -110 -21 -263 -96 -333 -162 -36 -34
-79 -92 -84 -113 -3 -14 -11 -32 -18 -40 -7 -8 -16 -26 -19 -40 -31 -111 -133
-205 -238 -217 -25 -3 -70 -3 -100 1 -45 6 -63 14 -103 51 -27 24 -71 55 -98
69 l-49 25 39 6 c21 3 52 10 68 16 17 6 46 15 66 20 100 24 203 102 230 174 6
16 15 38 20 47 5 10 9 26 9 37 0 10 13 28 30 38 28 18 29 20 14 41 -8 12 -21
22 -29 22 -7 0 -49 25 -93 55 -61 42 -89 55 -116 55 -23 0 -39 -5 -42 -15 -4
-10 -20 -15 -48 -15 -30 0 -44 -5 -54 -20 -11 -19 -23 -20 -155 -20 -78 1
-182 7 -232 16 -116 19 -274 34 -294 26 -9 -3 -32 -17 -51 -32 -19 -15 -54
-37 -76 -48 -84 -43 -54 -71 79 -74 l82 -2 -70 -3 c-38 -2 -74 -8 -81 -14 -15
-12 1 -62 33 -103 12 -15 25 -36 28 -45 13 -42 137 -109 253 -136 37 -9 75
-19 85 -22 14 -4 5 -14 -40 -43 -32 -21 -65 -45 -73 -55 -18 -22 -55 -40 -112
-54 -39 -9 -61 -8 -116 4 -91 21 -151 72 -193 164 -17 36 -41 86 -52 111 -12
25 -48 76 -81 114 -50 57 -74 75 -143 108 -46 22 -100 42 -118 45 -19 3 -35
10 -35 14 0 5 -7 9 -15 9 -19 0 -132 37 -165 54 -14 7 -36 16 -50 19 -14 4
-56 27 -94 52 -38 25 -72 45 -75 45 -7 0 -141 130 -186 181 -36 40 -75 101
-75 118 0 7 -11 29 -25 49 -14 20 -25 50 -25 67 0 17 -7 40 -15 51 -8 10 -15
24 -15 31 0 6 -5 24 -12 40 -14 33 -17 195 -4 205 6 4 4 14 -5 24 -17 21 -18
132 0 143 7 5 14 33 15 63 2 30 9 65 17 79 12 23 17 133 9 207 -2 25 3 39 23
60 27 28 37 72 17 72 -14 0 -32 46 -35 93 -2 21 -12 69 -21 107 -15 57 -16 75
-6 103 10 29 19 268 12 322 -5 35 -1 45 23 55 18 7 19 9 3 9 -15 1 -17 7 -13
34 5 31 -14 156 -32 208 -5 14 -5 32 -1 39 5 8 2 26 -7 43 -10 21 -13 43 -8
77 6 41 3 51 -18 76 -24 27 -24 30 -10 58 15 28 14 31 -5 47 -20 16 -20 17 -3
33 10 9 23 16 29 16 16 0 15 17 -2 72 -9 30 -10 51 -4 62 6 10 10 48 9 86 0
48 4 72 14 80 8 7 15 25 15 41 0 15 4 30 9 33 5 3 12 21 15 40 4 19 13 39 21
46 8 7 15 20 15 30 0 10 7 23 15 30 8 7 15 18 15 26 0 15 96 114 110 114 5 0
30 20 54 44 25 24 57 47 71 50 14 4 25 11 25 16 0 6 8 10 18 10 10 0 26 6 37
13 25 17 91 40 178 62 72 19 188 18 467 -4 69 -6 188 -15 265 -20 77 -6 196
-16 265 -22 83 -8 221 -10 420 -6 289 7 327 10 605 57 79 13 154 17 265 16
136 -1 161 -4 200 -23z m-670 -3827 c0 -8 -61 -12 -66 -4 -3 4 11 8 30 8 20 0
36 -2 36 -4z m-879 -41 c24 -9 50 -15 59 -13 29 4 59 -12 53 -29 -5 -14 3 -15
70 -8 75 7 90 2 65 -23 -9 -9 -9 -12 0 -12 7 0 12 5 12 10 0 12 37 14 43 2 6
-8 98 -9 112 0 6 3 35 9 65 13 30 4 61 12 68 17 6 6 12 7 12 3 0 -4 6 -2 14 4
7 6 21 9 30 5 9 -3 26 0 39 8 35 23 102 31 117 14 9 -12 5 -17 -27 -25 -21 -6
-46 -11 -55 -11 -11 0 -18 -8 -18 -20 0 -27 -29 -40 -99 -44 -63 -3 -91 -17
-91 -46 0 -27 -30 -29 -111 -9 -41 10 -104 19 -141 19 -56 0 -68 3 -73 18 -5
19 -63 42 -104 42 -19 0 -20 3 -11 20 10 19 8 20 -33 20 -52 0 -77 20 -57 45
15 18 9 18 61 0z"/>
<path d="M2555 4329 c-27 -4 -84 -13 -125 -20 -138 -21 -314 -87 -370 -139
-35 -33 -36 -40 -12 -69 13 -17 29 -22 61 -23 24 0 46 4 50 10 3 5 22 13 41
17 19 4 40 11 45 15 6 4 30 12 55 18 25 6 63 15 84 21 75 19 324 23 421 7 134
-22 191 -35 222 -51 15 -8 43 -15 61 -15 17 0 32 -4 32 -10 0 -19 88 -1 91 19
6 35 4 83 -5 90 -27 22 -94 55 -126 62 -19 5 -80 19 -135 33 -184 45 -282 53
-390 35z"/>
<path d="M4790 4330 c-14 -4 -40 -8 -59 -9 -55 -2 -252 -51 -296 -74 -11 -6
-33 -13 -49 -16 -40 -9 -68 -61 -55 -103 10 -36 27 -50 49 -42 8 3 35 7 60 10
25 3 59 12 76 20 18 8 78 24 135 36 193 40 502 27 624 -27 41 -18 111 -36 162
-42 38 -4 44 -2 54 21 20 43 -1 70 -83 110 -169 84 -516 149 -618 116z"/>
<path d="M4567 3999 c8 -8 16 -8 30 0 16 9 14 10 -11 11 -22 0 -27 -3 -19 -11z"/>
<path d="M2960 3981 c-39 -4 -60 -9 -52 -14 6 -5 12 -19 12 -31 0 -19 -7 -25
-34 -30 -18 -4 -46 -2 -60 4 -37 14 -38 13 -31 -11 6 -19 3 -20 -38 -18 -25 2
-51 -2 -59 -8 -7 -6 -33 -13 -57 -17 -24 -4 -56 -13 -70 -20 -14 -7 -47 -24
-73 -37 -27 -13 -48 -27 -48 -31 0 -5 -6 -8 -14 -8 -17 0 -162 -107 -191 -142
-11 -12 -27 -34 -36 -48 -9 -14 -26 -36 -38 -49 -11 -13 -21 -31 -21 -39 0 -8
-7 -20 -16 -26 -23 -17 -35 -85 -21 -115 17 -35 33 -36 45 -2 33 93 245 341
292 341 18 0 18 -5 -13 -63 -52 -103 -57 -118 -57 -187 0 -61 9 -93 41 -153 6
-10 19 -36 31 -58 11 -21 23 -39 27 -39 4 0 23 -13 41 -30 18 -16 39 -30 46
-30 7 0 14 -5 16 -11 4 -13 81 -24 105 -14 15 5 11 10 -21 27 -21 11 -65 46
-98 78 -54 54 -58 61 -47 82 9 18 13 19 18 8 8 -21 44 -60 54 -60 5 0 15 -7
23 -15 9 -8 27 -15 40 -15 14 0 34 -5 45 -11 40 -21 155 20 213 75 53 51 66
88 66 190 0 53 -4 96 -8 96 -4 0 -8 9 -9 20 -1 11 4 20 13 20 8 0 14 -10 14
-23 0 -12 11 -43 25 -69 30 -56 42 -144 26 -188 -7 -21 -7 -38 -1 -49 8 -13 9
-11 10 11 0 15 7 31 15 35 12 7 15 32 16 115 1 101 0 109 -31 166 -36 68 -110
144 -155 159 -37 12 -31 28 10 27 31 -1 77 -15 134 -43 42 -19 171 -145 171
-166 0 -8 13 -38 28 -67 16 -29 32 -70 36 -91 4 -21 14 -41 22 -44 9 -3 14
-19 14 -45 l0 -40 40 42 c22 23 40 51 41 63 3 153 -4 290 -16 314 -8 16 -15
33 -15 39 0 6 -9 23 -21 38 -12 16 -19 37 -17 55 3 37 -10 52 -74 82 -29 13
-55 26 -58 30 -3 3 -26 15 -51 27 -46 22 -61 23 -179 13z m-97 -308 c-7 -2
-21 -2 -30 0 -10 3 -4 5 12 5 17 0 24 -2 18 -5z m-223 -18 c0 -8 4 -15 10 -15
5 0 14 -17 20 -37 25 -82 -34 -127 -121 -93 -28 11 -44 24 -43 34 0 9 1 29 2
46 2 22 12 36 39 55 42 28 93 34 93 10z m265 -5 c3 -5 1 -10 -4 -10 -6 0 -11
5 -11 10 0 6 2 10 4 10 3 0 8 -4 11 -10z m45 -35 c0 -2 -7 -5 -15 -9 -9 -3
-15 0 -15 9 0 9 6 12 15 9 8 -4 15 -7 15 -9z m-470 -182 c0 -35 -3 -44 -11
-36 -7 7 -9 25 -5 47 9 50 16 45 16 -11z m30 -98 c0 -14 -4 -25 -9 -25 -10 0
-21 36 -13 44 12 13 22 5 22 -19z"/>
<path d="M4453 3983 c-20 -3 -34 -11 -38 -23 -6 -20 -33 -31 -85 -34 -20 -2
-38 -10 -45 -21 -5 -10 -29 -43 -52 -75 -50 -67 -66 -106 -58 -137 4 -19 0
-25 -20 -33 -20 -8 -24 -14 -17 -26 5 -9 6 -32 1 -52 -7 -32 -5 -35 22 -45 27
-10 41 -37 20 -37 -14 0 -31 -60 -25 -89 14 -67 25 -81 60 -81 31 0 34 3 34
30 0 18 6 33 15 36 9 4 17 26 21 55 4 27 13 54 20 60 8 6 14 17 14 25 0 53
176 214 234 214 13 0 29 7 36 15 14 16 75 21 85 6 3 -5 -5 -13 -17 -17 -39
-12 -114 -77 -145 -124 -39 -59 -63 -136 -63 -200 0 -59 26 -157 46 -178 8 -7
14 -18 14 -23 0 -6 6 -16 13 -24 6 -7 20 -21 29 -31 35 -39 117 -84 152 -84
15 0 26 -4 26 -10 0 -5 21 -10 48 -9 45 1 46 1 17 11 -16 6 -41 20 -55 32 -14
12 -37 27 -53 34 -34 15 -97 71 -97 88 0 7 -6 15 -12 17 -7 3 -3 6 10 6 12 1
22 -3 22 -9 0 -5 12 -13 28 -16 15 -4 32 -14 37 -21 17 -22 161 -29 205 -10
50 22 129 94 137 125 3 15 13 37 21 49 13 21 13 81 1 147 -5 26 21 33 28 7 3
-12 9 -21 13 -21 11 0 21 -54 24 -122 2 -66 6 -73 31 -54 15 11 19 27 19 92 0
84 -13 132 -59 204 -30 47 -30 50 -9 50 26 0 134 -100 197 -182 31 -42 57 -80
57 -85 0 -6 6 -16 14 -22 8 -7 18 -26 21 -42 6 -25 11 -30 33 -27 23 3 28 9
33 46 4 32 1 46 -12 58 -9 8 -20 26 -23 40 -4 13 -11 24 -16 24 -6 0 -10 6
-10 13 0 7 -8 20 -17 28 -10 9 -25 26 -33 38 -24 37 -51 64 -110 112 -59 49
-147 109 -158 109 -4 0 -29 11 -56 25 -26 13 -75 30 -107 36 -33 6 -62 16 -65
20 -3 5 -33 9 -67 9 -47 0 -58 3 -49 12 7 7 12 19 12 28 -1 13 -3 12 -14 -2
-18 -24 -49 -23 -71 2 -10 11 -37 26 -59 32 -23 7 -45 18 -49 25 -8 13 -21 14
-84 6z m117 -98 c0 -2 -7 -5 -15 -9 -9 -3 -15 0 -15 9 0 9 6 12 15 9 8 -4 15
-7 15 -9z m145 -219 c-18 -13 -18 -14 3 -41 36 -45 25 -92 -27 -120 -26 -13
-34 -13 -82 3 -53 17 -54 18 -51 51 2 19 10 44 18 56 17 27 95 62 138 64 19 1
19 1 1 -13z m299 -72 c23 -9 20 -23 -4 -17 -11 3 -20 9 -20 14 0 11 3 11 24 3z
m-467 -106 c-3 -8 -6 -5 -6 6 -1 11 2 17 5 13 3 -3 4 -12 1 -19z m0 -135 c-3
-10 -5 -4 -5 12 0 17 2 24 5 18 2 -7 2 -21 0 -30z"/>
<path d="M5094 3285 c-8 -13 -14 -32 -11 -42 4 -14 5 -13 6 5 1 12 7 22 16 22
8 0 15 9 15 20 0 26 -6 25 -26 -5z"/>
<path d="M4180 2532 c0 -70 -36 -151 -84 -186 -17 -13 -69 -34 -116 -47 -71
-19 -108 -23 -220 -22 -118 0 -145 4 -217 27 -73 24 -87 32 -127 80 -37 43
-47 63 -52 102 -10 89 -12 96 -32 85 -10 -6 -27 -37 -37 -70 -15 -51 -16 -69
-7 -116 13 -65 53 -130 100 -161 41 -28 141 -64 212 -76 107 -18 301 -20 355
-4 170 50 243 96 268 169 44 129 45 143 17 202 -11 22 -19 45 -20 51 0 10 -21
24 -36 24 -2 0 -4 -26 -4 -58z"/>
<path d="M3477 1629 c8 -8 16 -8 30 0 16 9 14 10 -11 11 -22 0 -27 -3 -19 -11z"/>
<path d="M1510 2523 c0 -13 5 -23 10 -23 13 0 13 11 0 30 -8 12 -10 11 -10 -7z"/>
</g>
</svg>
